<?xml version="1.0" encoding="UTF-8" standalone="no"?>
<!-- Created with Inkscape (http://www.inkscape.org/) -->

<svg
   width="297mm"
   height="210mm"
   viewBox="0 0 1122.5197 793.70081"
   version="1.1"
   id="svg1"
   inkscape:version="1.4 (e7c3feb1, 2024-10-09)"
   sodipodi:docname="5B.svg"
   xmlns:inkscape="http://www.inkscape.org/namespaces/inkscape"
   xmlns:sodipodi="http://sodipodi.sourceforge.net/DTD/sodipodi-0.dtd"
   xmlns="http://www.w3.org/2000/svg"
   xmlns:svg="http://www.w3.org/2000/svg">
  <sodipodi:namedview
     id="namedview1"
     pagecolor="#ffffff"
     bordercolor="#000000"
     borderopacity="0.25"
     inkscape:showpageshadow="2"
     inkscape:pageopacity="0.0"
     inkscape:pagecheckerboard="0"
     inkscape:deskcolor="#d1d1d1"
     inkscape:document-units="mm"
     inkscape:zoom="0.66304673"
     inkscape:cx="502.22704"
     inkscape:cy="485.63696"
     inkscape:window-width="1920"
     inkscape:window-height="1027"
     inkscape:window-x="0"
     inkscape:window-y="25"
     inkscape:window-maximized="1"
     inkscape:current-layer="layer1" />
  <defs
     id="defs1">
    <clipPath
       clipPathUnits="userSpaceOnUse"
       id="clipPath80">
      <rect
         x="50.839951"
         y="47.169983"
         width="375.17999"
         height="202.08998"
         id="rect81"
         style="stroke-width:1" />
    </clipPath>
    <clipPath
       clipPathUnits="userSpaceOnUse"
       id="clipPath79">
      <rect
         x="50.839951"
         y="47.169983"
         width="375.17999"
         height="202.08998"
         id="rect80"
         style="stroke-width:1" />
    </clipPath>
    <clipPath
       clipPathUnits="userSpaceOnUse"
       id="clipPath78">
      <rect
         x="50.839951"
         y="47.169983"
         width="375.17999"
         height="202.08998"
         id="rect79"
         style="stroke-width:1" />
    </clipPath>
    <clipPath
       clipPathUnits="userSpaceOnUse"
       id="clipPath76">
      <rect
         x="50.839951"
         y="47.169983"
         width="375.17999"
         height="202.08998"
         id="rect78"
         style="stroke-width:1" />
    </clipPath>
    <clipPath
       clipPathUnits="userSpaceOnUse"
       id="clipPath75">
      <rect
         x="50.839951"
         y="47.169983"
         width="375.17999"
         height="202.08998"
         id="rect76"
         style="stroke-width:1" />
    </clipPath>
    <clipPath
       clipPathUnits="userSpaceOnUse"
       id="clipPath74">
      <rect
         x="3.1616557e-05"
         y="-1.0837452e-05"
         width="432"
         height="288"
         id="rect75"
         style="stroke-width:1" />
    </clipPath>
    <clipPath
       clipPathUnits="userSpaceOnUse"
       id="clipPath73">
      <rect
         x="3.1616557e-05"
         y="-1.0837452e-05"
         width="432"
         height="288"
         id="rect74"
         style="stroke-width:1" />
    </clipPath>
    <clipPath
       clipPathUnits="userSpaceOnUse"
       id="clipPath72">
      <rect
         x="3.1616557e-05"
         y="-1.0837452e-05"
         width="432"
         height="288"
         id="rect73"
         style="stroke-width:1" />
    </clipPath>
    <clipPath
       clipPathUnits="userSpaceOnUse"
       id="clipPath71">
      <rect
         x="3.1616557e-05"
         y="-1.0837452e-05"
         width="432"
         height="288"
         id="rect72"
         style="stroke-width:1" />
    </clipPath>
    <clipPath
       clipPathUnits="userSpaceOnUse"
       id="clipPath70">
      <rect
         x="3.1616557e-05"
         y="-1.0837452e-05"
         width="432"
         height="288"
         id="rect71"
         style="stroke-width:1" />
    </clipPath>
    <clipPath
       clipPathUnits="userSpaceOnUse"
       id="clipPath69">
      <rect
         x="3.1616557e-05"
         y="-1.0837452e-05"
         width="432"
         height="288"
         id="rect70"
         style="stroke-width:1" />
    </clipPath>
    <clipPath
       clipPathUnits="userSpaceOnUse"
       id="clipPath68">
      <rect
         x="3.1616557e-05"
         y="-1.0837452e-05"
         width="432"
         height="288"
         id="rect69"
         style="stroke-width:1" />
    </clipPath>
    <clipPath
       clipPathUnits="userSpaceOnUse"
       id="clipPath67">
      <rect
         x="3.1616557e-05"
         y="-1.0837452e-05"
         width="432"
         height="288"
         id="rect68"
         style="stroke-width:1" />
    </clipPath>
    <clipPath
       clipPathUnits="userSpaceOnUse"
       id="clipPath63">
      <rect
         x="3.1616557e-05"
         y="-1.0837452e-05"
         width="432"
         height="288"
         id="rect67"
         style="stroke-width:1" />
    </clipPath>
    <clipPath
       clipPathUnits="userSpaceOnUse"
       id="clipPath62">
      <rect
         x="3.1616557e-05"
         y="-1.0837452e-05"
         width="432"
         height="288"
         id="rect63"
         style="stroke-width:1" />
    </clipPath>
    <clipPath
       clipPathUnits="userSpaceOnUse"
       id="clipPath61">
      <rect
         x="3.1616557e-05"
         y="-1.0837452e-05"
         width="432"
         height="288"
         id="rect62"
         style="stroke-width:1" />
    </clipPath>
    <clipPath
       clipPathUnits="userSpaceOnUse"
       id="clipPath60">
      <rect
         x="3.1616557e-05"
         y="-1.0837452e-05"
         width="432"
         height="288"
         id="rect61"
         style="stroke-width:1" />
    </clipPath>
  </defs>
  <g
     inkscape:label="Layer 1"
     inkscape:groupmode="layer"
     id="layer1">
    <rect
       x="110.61073"
       y="256.74857"
       width="682.61084"
       height="367.68704"
       style="fill:#ffffff;stroke:none;stroke-width:2.11053;stroke-linecap:round;stroke-linejoin:round;stroke-miterlimit:10"
       id="rect6-6" />
    <polyline
       points="67.90,56.35 87.00,56.35 87.00,69.48 88.28,69.48 88.28,82.60 112.58,82.60 112.58,95.72 114.62,95.72 114.62,108.84 122.38,108.84 122.38,121.97 132.19,121.97 132.19,135.09 145.66,135.09 145.66,148.21 152.40,148.21 152.40,161.33 155.89,161.33 155.89,174.46 200.57,174.46 200.57,187.58 212.17,187.58 212.17,200.70 269.21,200.70 269.21,213.82 311.25,213.82 311.25,226.94 363.95,226.94 363.95,240.07 "
       style="fill:none;stroke:#59bdb2;stroke-width:2.13;stroke-linecap:butt;stroke-linejoin:round;stroke-miterlimit:10"
       id="polyline5"
       transform="matrix(1.8194223,0,0,1.8194223,18.11157,170.92642)"
       clip-path="url(#clipPath80)" />
    <polyline
       points="67.90,56.35 81.37,56.35 81.37,102.28 231.61,102.28 231.61,148.21 270.24,148.21 270.24,194.14 404.28,194.14 404.28,240.07 "
       style="fill:none;stroke:#e7dbae;stroke-width:2.13;stroke-linecap:butt;stroke-linejoin:round;stroke-miterlimit:10"
       id="polyline6"
       transform="matrix(1.8194223,0,0,1.8194223,18.11157,170.92642)"
       clip-path="url(#clipPath79)" />
    <polyline
       points="67.90,56.35 89.64,56.35 89.64,102.28 95.35,102.28 95.35,148.21 116.76,148.21 116.76,194.14 134.83,194.14 134.83,240.07 "
       style="fill:none;stroke:#f4a2a4;stroke-width:2.13;stroke-linecap:butt;stroke-linejoin:round;stroke-miterlimit:10"
       id="polyline7"
       transform="matrix(1.8194223,0,0,1.8194223,18.11157,170.92642)"
       clip-path="url(#clipPath78)" />
    <polyline
       points="67.90,56.35 67.98,56.35 67.98,60.26 70.45,60.26 70.45,64.17 82.56,64.17 82.56,68.08 98.76,68.08 98.76,71.99 99.02,71.99 99.02,75.90 104.22,75.90 104.22,79.81 115.48,79.81 115.48,83.72 116.58,83.72 116.58,87.62 120.08,87.62 120.08,91.53 120.42,91.53 120.42,95.44 131.76,95.44 131.76,99.35 135.43,99.35 135.43,103.26 138.24,103.26 138.24,107.17 142.85,107.17 142.85,111.08 146.43,111.08 146.43,114.99 148.30,114.99 148.30,118.89 149.67,118.89 149.67,122.80 153.93,122.80 153.93,126.71 156.06,126.71 156.06,130.62 163.99,130.62 163.99,134.53 165.27,134.53 165.27,138.44 168.00,138.44 168.00,142.35 176.36,142.35 176.36,146.26 184.29,146.26 184.29,150.16 189.83,150.16 189.83,154.07 196.48,154.07 196.48,157.98 210.55,157.98 210.55,161.89 211.83,161.89 211.83,165.80 212.34,165.80 212.34,169.71 217.88,169.71 217.88,173.62 219.76,173.62 219.76,177.53 222.40,177.53 222.40,181.44 249.26,181.44 249.26,185.34 254.80,185.34 254.80,189.25 261.71,189.25 261.71,193.16 285.42,193.16 285.42,197.07 287.29,197.07 287.29,200.98 299.14,200.98 299.14,204.89 303.49,204.89 303.49,208.80 306.48,208.80 306.48,212.71 320.72,212.71 320.72,216.61 329.07,216.61 329.07,220.52 363.01,220.52 363.01,224.43 380.75,224.43 380.75,228.34 405.47,228.34 405.47,232.25 431.74,232.25 431.74,236.16 447.85,236.16 447.85,240.07 "
       style="fill:none;stroke:#e94587;stroke-width:2.13;stroke-linecap:butt;stroke-linejoin:round;stroke-miterlimit:10"
       id="polyline8"
       transform="matrix(1.8194223,0,0,1.8194223,18.11157,170.92642)"
       clip-path="url(#clipPath76)" />
    <polyline
       points="67.90,56.35 67.90,56.35 67.90,62.48 81.54,62.48 81.54,68.60 93.05,68.60 93.05,74.72 107.80,74.72 107.80,80.85 113.77,80.85 113.77,86.97 117.10,86.97 117.10,93.10 129.55,93.10 129.55,99.22 137.05,99.22 137.05,105.34 141.23,105.34 141.23,111.47 143.19,111.47 143.19,117.59 152.40,117.59 152.40,123.72 177.55,123.72 177.55,129.84 186.25,129.84 186.25,135.96 201.17,135.96 201.17,142.09 207.91,142.09 207.91,148.21 212.77,148.21 212.77,154.33 232.21,154.33 232.21,160.46 237.84,160.46 237.84,166.58 239.20,166.58 239.20,172.71 246.70,172.71 246.70,178.83 256.08,178.83 256.08,184.95 273.99,184.95 273.99,191.08 278.42,191.08 278.42,197.20 279.62,197.20 279.62,203.32 282.77,203.32 282.77,209.45 283.97,209.45 283.97,215.57 320.72,215.57 320.72,221.70 334.44,221.70 334.44,227.82 363.09,227.82 363.09,233.94 403.94,233.94 403.94,240.07 "
       style="fill:none;stroke:#6b2b68;stroke-width:2.13;stroke-linecap:butt;stroke-linejoin:round;stroke-miterlimit:10"
       id="polyline9"
       transform="matrix(1.8194223,0,0,1.8194223,18.11157,170.92642)"
       clip-path="url(#clipPath75)" />
    <polyline
       points="50.84,249.25 50.84,47.17 "
       style="fill:none;stroke:#000000;stroke-width:1.16;stroke-linecap:butt;stroke-linejoin:round;stroke-miterlimit:10"
       id="polyline10"
       transform="matrix(1.8194223,0,0,1.8194223,18.11157,170.92642)"
       clip-path="url(#clipPath74)" />
    <text
       x="45.459999"
       y="244.37"
       text-anchor="end"
       style="font-size:12px;font-family:Arial;white-space:pre"
       textLength="23.360001"
       lengthAdjust="spacingAndGlyphs"
       id="text10-3"
       transform="matrix(1.8194223,0,0,1.8194223,18.11157,170.92642)">0.00</text>
    <text
       x="45.459999"
       y="198.44"
       text-anchor="end"
       style="font-size:12px;font-family:Arial;white-space:pre"
       textLength="23.360001"
       lengthAdjust="spacingAndGlyphs"
       id="text11-8"
       transform="matrix(1.8194223,0,0,1.8194223,18.11157,170.92642)">0.25</text>
    <text
       x="45.459999"
       y="152.52"
       text-anchor="end"
       style="font-size:12px;font-family:Arial;white-space:pre"
       textLength="23.360001"
       lengthAdjust="spacingAndGlyphs"
       id="text12-6"
       transform="matrix(1.8194223,0,0,1.8194223,18.11157,170.92642)">0.50</text>
    <text
       x="45.459999"
       y="106.59"
       text-anchor="end"
       style="font-size:12px;font-family:Arial;white-space:pre"
       textLength="23.360001"
       lengthAdjust="spacingAndGlyphs"
       id="text13-1"
       transform="matrix(1.8194223,0,0,1.8194223,18.11157,170.92642)">0.75</text>
    <text
       x="45.459999"
       y="60.66"
       text-anchor="end"
       style="font-size:12px;font-family:Arial;white-space:pre"
       textLength="23.360001"
       lengthAdjust="spacingAndGlyphs"
       id="text14-9"
       transform="matrix(1.8194223,0,0,1.8194223,18.11157,170.92642)">1.00</text>
    <polyline
       points="47.85,240.07 50.84,240.07 "
       style="fill:none;stroke:#000000;stroke-width:1.16;stroke-linecap:butt;stroke-linejoin:round;stroke-miterlimit:10"
       id="polyline14"
       transform="matrix(1.8194223,0,0,1.8194223,18.11157,170.92642)"
       clip-path="url(#clipPath73)" />
    <polyline
       points="47.85,194.14 50.84,194.14 "
       style="fill:none;stroke:#000000;stroke-width:1.16;stroke-linecap:butt;stroke-linejoin:round;stroke-miterlimit:10"
       id="polyline15"
       transform="matrix(1.8194223,0,0,1.8194223,18.11157,170.92642)"
       clip-path="url(#clipPath72)" />
    <polyline
       points="47.85,148.21 50.84,148.21 "
       style="fill:none;stroke:#000000;stroke-width:1.16;stroke-linecap:butt;stroke-linejoin:round;stroke-miterlimit:10"
       id="polyline16"
       transform="matrix(1.8194223,0,0,1.8194223,18.11157,170.92642)"
       clip-path="url(#clipPath71)" />
    <polyline
       points="47.85,102.28 50.84,102.28 "
       style="fill:none;stroke:#000000;stroke-width:1.16;stroke-linecap:butt;stroke-linejoin:round;stroke-miterlimit:10"
       id="polyline17"
       transform="matrix(1.8194223,0,0,1.8194223,18.11157,170.92642)"
       clip-path="url(#clipPath70)" />
    <polyline
       points="47.85,56.35 50.84,56.35 "
       style="fill:none;stroke:#000000;stroke-width:1.16;stroke-linecap:butt;stroke-linejoin:round;stroke-miterlimit:10"
       id="polyline18"
       transform="matrix(1.8194223,0,0,1.8194223,18.11157,170.92642)"
       clip-path="url(#clipPath69)" />
    <polyline
       points="50.84,249.25 426.02,249.25 "
       style="fill:none;stroke:#000000;stroke-width:1.16;stroke-linecap:butt;stroke-linejoin:round;stroke-miterlimit:10"
       id="polyline19"
       transform="matrix(1.8194223,0,0,1.8194223,18.11157,170.92642)"
       clip-path="url(#clipPath68)" />
    <polyline
       points="67.90,252.24 67.90,249.25 "
       style="fill:none;stroke:#000000;stroke-width:1.16;stroke-linecap:butt;stroke-linejoin:round;stroke-miterlimit:10"
       id="polyline20"
       transform="matrix(1.8194223,0,0,1.8194223,18.11157,170.92642)"
       clip-path="url(#clipPath67)" />
    <polyline
       points="153.16,252.24 153.16,249.25 "
       style="fill:none;stroke:#000000;stroke-width:1.16;stroke-linecap:butt;stroke-linejoin:round;stroke-miterlimit:10"
       id="polyline21"
       transform="matrix(1.8194223,0,0,1.8194223,18.11157,170.92642)"
       clip-path="url(#clipPath63)" />
    <polyline
       points="238.43,252.24 238.43,249.25 "
       style="fill:none;stroke:#000000;stroke-width:1.16;stroke-linecap:butt;stroke-linejoin:round;stroke-miterlimit:10"
       id="polyline22"
       transform="matrix(1.8194223,0,0,1.8194223,18.11157,170.92642)"
       clip-path="url(#clipPath62)" />
    <polyline
       points="323.70,252.24 323.70,249.25 "
       style="fill:none;stroke:#000000;stroke-width:1.16;stroke-linecap:butt;stroke-linejoin:round;stroke-miterlimit:10"
       id="polyline23"
       transform="matrix(1.8194223,0,0,1.8194223,18.11157,170.92642)"
       clip-path="url(#clipPath61)" />
    <polyline
       points="408.97,252.24 408.97,249.25 "
       style="fill:none;stroke:#000000;stroke-width:1.16;stroke-linecap:butt;stroke-linejoin:round;stroke-miterlimit:10"
       id="polyline24"
       transform="matrix(1.8194223,0,0,1.8194223,18.0321,171.95506)"
       clip-path="url(#clipPath60)" />
    <text
       x="67.900002"
       y="263.23999"
       text-anchor="middle"
       style="font-size:12px;font-family:Arial;white-space:pre"
       textLength="6.6700001"
       lengthAdjust="spacingAndGlyphs"
       id="text24"
       transform="matrix(1.8194223,0,0,1.8194223,18.11157,170.92642)">0</text>
    <text
       x="153.16"
       y="263.23999"
       text-anchor="middle"
       style="font-size:12px;font-family:Arial;white-space:pre"
       textLength="26.700001"
       lengthAdjust="spacingAndGlyphs"
       id="text25"
       transform="matrix(1.8194223,0,0,1.8194223,18.11157,170.92642)">1000</text>
    <text
       x="238.42999"
       y="263.23999"
       text-anchor="middle"
       style="font-size:12px;font-family:Arial;white-space:pre"
       textLength="26.700001"
       lengthAdjust="spacingAndGlyphs"
       id="text26"
       transform="matrix(1.8194223,0,0,1.8194223,18.11157,170.92642)">2000</text>
    <text
       x="323.70001"
       y="263.23999"
       text-anchor="middle"
       style="font-size:12px;font-family:Arial;white-space:pre"
       textLength="26.700001"
       lengthAdjust="spacingAndGlyphs"
       id="text27"
       transform="matrix(1.8194223,0,0,1.8194223,18.11157,170.92642)">3000</text>
    <text
       x="408.97"
       y="263.23999"
       text-anchor="middle"
       style="font-size:12px;font-family:Arial;white-space:pre"
       textLength="26.700001"
       lengthAdjust="spacingAndGlyphs"
       id="text28"
       transform="matrix(1.8194223,0,0,1.8194223,18.0321,171.95506)">4000</text>
    <text
       x="238.42999"
       y="278.92999"
       text-anchor="middle"
       style="font-size:14px;font-family:Arial;white-space:pre"
       textLength="31.110001"
       lengthAdjust="spacingAndGlyphs"
       id="text29"
       transform="matrix(1.4737321,0,0,1.4737321,86.62455,265.6459)">Time</text>
    <text
       transform="matrix(0,-1.4737321,1.4737321,0,46.00623,440.49519)"
       text-anchor="middle"
       style="font-size:14px;font-family:Arial;white-space:pre"
       textLength="117.48"
       lengthAdjust="spacingAndGlyphs"
       id="text30">Survival probability</text>
    <rect
       x="127.82219"
       y="192.68666"
       width="31.439617"
       height="31.439617"
       style="fill:#ffffff;stroke:none;stroke-width:2.11053;stroke-linecap:round;stroke-linejoin:round;stroke-miterlimit:10"
       id="rect31-8" />
    <rect
       x="271.52011"
       y="192.68666"
       width="31.439617"
       height="31.439617"
       style="fill:#ffffff;stroke:none;stroke-width:2.11053;stroke-linecap:round;stroke-linejoin:round;stroke-miterlimit:10"
       id="rect32-9" />
    <rect
       x="415.21832"
       y="192.68666"
       width="31.439617"
       height="31.439617"
       style="fill:#ffffff;stroke:none;stroke-width:2.11053;stroke-linecap:round;stroke-linejoin:round;stroke-miterlimit:10"
       id="rect33-75" />
    <rect
       x="558.9162"
       y="192.68666"
       width="31.439617"
       height="31.439617"
       style="fill:#ffffff;stroke:none;stroke-width:2.11053;stroke-linecap:round;stroke-linejoin:round;stroke-miterlimit:10"
       id="rect34-52" />
    <text
       xml:space="preserve"
       style="font-size:36px;font-family:Arial;-inkscape-font-specification:Arial;text-align:start;writing-mode:lr-tb;direction:ltr;text-anchor:start;fill:#808080;stroke:#6c6c6c;stroke-width:0"
       x="-114.05871"
       y="171.96228"
       id="text6"><tspan
         sodipodi:role="line"
         id="tspan6"
         style="font-size:36px;fill:#000000;stroke-width:0"
         x="-114.05871"
         y="171.96228">                                  <tspan
   style="font-size:26.6667px"
   id="tspan1">Survival analysis within TCGA </tspan></tspan></text>
    <g
       id="g85"
       transform="matrix(8.7341325,0,0,8.7341325,-1009.1201,-591.18873)">
      <rect
         x="188.93285"
         y="98.052094"
         width="5.7972355"
         height="5.7972355"
         style="fill:#ffffff;stroke:none;stroke-width:0.389167"
         id="rect31-4-0" />
      <line
         x1="188.83104"
         y1="100.5338"
         x2="193.4675"
         y2="100.5338"
         style="stroke:#59bdb2;stroke-width:0.714591;stroke-linecap:butt"
         id="line31-0" />
      <rect
         x="188.95306"
         y="101.64769"
         width="5.7972355"
         height="5.7972355"
         style="fill:#ffffff;stroke:none;stroke-width:0.389167"
         id="rect32-0-9" />
      <line
         x1="188.81332"
         y1="103.045"
         x2="193.44978"
         y2="103.045"
         style="stroke:#e7dbae;stroke-width:0.714591;stroke-linecap:butt"
         id="line32-5" />
      <rect
         x="189.08223"
         y="105.13432"
         width="5.7972355"
         height="5.7972355"
         style="fill:#ffffff;stroke:none;stroke-width:0.389167"
         id="rect33-7-6" />
      <line
         x1="188.8667"
         y1="105.51888"
         x2="193.50314"
         y2="105.51888"
         style="stroke:#f4a2a4;stroke-width:0.714591;stroke-linecap:butt"
         id="line33-2" />
      <rect
         x="189.16225"
         y="108.8391"
         width="5.7972355"
         height="5.7972355"
         style="fill:#ffffff;stroke:none;stroke-width:0.389167"
         id="rect34-5-8" />
      <line
         x1="188.87094"
         y1="108.05928"
         x2="193.5074"
         y2="108.05928"
         style="stroke:#e94587;stroke-width:0.714591;stroke-linecap:butt"
         id="line34-5" />
      <line
         x1="188.86465"
         y1="110.56418"
         x2="193.50113"
         y2="110.56418"
         style="stroke:#6b2b68;stroke-width:0.714591;stroke-linecap:butt"
         id="line35-4" />
      <text
         x="515"
         y="138.06"
         style="font-size:11px;font-family:Arial"
         textLength="40.98"
         lengthAdjust="spacingAndGlyphs"
         id="text618-9-3"
         transform="matrix(0.26734832,0,0,0.20725356,50.885821,69.532823)">Signatures</text>
      <text
         xml:space="preserve"
         style="font-size:2.04535px;line-height:0;font-family:Arial;-inkscape-font-specification:Arial;text-align:start;writing-mode:lr-tb;direction:ltr;text-anchor:start;fill:#000000;fill-opacity:1;stroke:#a020f0;stroke-width:0"
         x="193.79921"
         y="101.01509"
         id="text74-3"><tspan
           sodipodi:role="line"
           id="tspan74"
           style="fill:#000000;fill-opacity:1;stroke-width:0"
           x="193.79921"
           y="101.01509">signature 2</tspan></text>
      <text
         xml:space="preserve"
         style="font-size:2.04535px;line-height:0;font-family:Arial;-inkscape-font-specification:Arial;text-align:start;writing-mode:lr-tb;direction:ltr;text-anchor:start;fill:#000000;fill-opacity:1;stroke:#a020f0;stroke-width:0"
         x="193.74219"
         y="103.50294"
         id="text74-9"><tspan
           sodipodi:role="line"
           id="tspan74-7"
           style="fill:#000000;fill-opacity:1;stroke-width:0"
           x="193.74219"
           y="103.50294">signature 3</tspan></text>
      <text
         xml:space="preserve"
         style="font-size:2.04535px;line-height:0;font-family:Arial;-inkscape-font-specification:Arial;text-align:start;writing-mode:lr-tb;direction:ltr;text-anchor:start;fill:#000000;fill-opacity:1;stroke:#a020f0;stroke-width:0"
         x="193.6859"
         y="105.99352"
         id="text74-9-9"><tspan
           sodipodi:role="line"
           id="tspan74-7-4"
           style="fill:#000000;fill-opacity:1;stroke-width:0"
           x="193.6859"
           y="105.99352">signature 4</tspan></text>
      <text
         xml:space="preserve"
         style="font-size:2.04535px;line-height:0;font-family:Arial;-inkscape-font-specification:Arial;text-align:start;writing-mode:lr-tb;direction:ltr;text-anchor:start;fill:#000000;fill-opacity:1;stroke:#a020f0;stroke-width:0"
         x="193.71754"
         y="108.51106"
         id="text74-9-9-6"><tspan
           sodipodi:role="line"
           id="tspan74-7-4-8"
           style="fill:#000000;fill-opacity:1;stroke-width:0"
           x="193.71754"
           y="108.51106">signature 5</tspan></text>
      <text
         xml:space="preserve"
         style="font-size:2.04535px;line-height:0;font-family:Arial;-inkscape-font-specification:Arial;text-align:start;writing-mode:lr-tb;direction:ltr;text-anchor:start;fill:#000000;fill-opacity:1;stroke:#a020f0;stroke-width:0"
         x="193.66405"
         y="111.04458"
         id="text74-9-9-6-0"><tspan
           sodipodi:role="line"
           id="tspan74-7-4-8-9"
           style="fill:#000000;fill-opacity:1;stroke-width:0"
           x="193.66405"
           y="111.04458">signature 7</tspan></text>
    </g>
    <g
       id="g83"
       transform="matrix(8.7341325,0,0,8.7341325,-816.88734,-888.89818)">
      <text
         x="75.5"
         y="208.42999"
         style="font-size:14.23px;font-family:Arial;white-space:pre"
         textLength="67.589996"
         lengthAdjust="spacingAndGlyphs"
         id="text9-8"
         transform="matrix(0.15185926,0,0,0.15185926,161.83124,120.11353)">p = 0.0035</text>
      <text
         x="73.82"
         y="208.42999"
         style="font-size:14.23px;font-family:Arial;white-space:pre"
         textLength="59.689999"
         lengthAdjust="spacingAndGlyphs"
         id="text6-52"
         transform="matrix(0.15885832,0,0,0.15885832,161.53469,120.92283)">p = 0.046</text>
    </g>
    <text
       xml:space="preserve"
       style="font-style:normal;font-variant:normal;font-weight:bold;font-stretch:normal;font-size:18.0447px;line-height:0;font-family:Arial;-inkscape-font-specification:'Arial Bold';text-align:start;writing-mode:lr-tb;direction:ltr;text-anchor:start;fill:#000000;stroke:#a020f0;stroke-width:0"
       x="665.60944"
       y="411.68216"
       id="text83-9"><tspan
         sodipodi:role="line"
         id="tspan83-0"
         style="font-style:normal;font-variant:normal;font-weight:normal;font-stretch:normal;font-size:18.0447px;font-family:Arial;-inkscape-font-specification:Arial;stroke-width:0"
         x="665.60944"
         y="411.68216">Log-rank:</tspan></text>
    <text
       xml:space="preserve"
       style="font-style:normal;font-variant:normal;font-weight:normal;font-stretch:normal;font-size:18.0447px;line-height:0;font-family:Arial;-inkscape-font-specification:Arial;text-align:start;writing-mode:lr-tb;direction:ltr;text-anchor:start;fill:#000000;stroke:#a020f0;stroke-width:0"
       x="627.94055"
       y="437.15588"
       id="text84"><tspan
         sodipodi:role="line"
         id="tspan84-5"
         style="stroke-width:0"
         x="627.94055"
         y="437.15588">Overall: </tspan></text>
    <text
       xml:space="preserve"
       style="font-style:normal;font-variant:normal;font-weight:normal;font-stretch:normal;font-size:18.0447px;line-height:0;font-family:Arial;-inkscape-font-specification:Arial;text-align:start;writing-mode:lr-tb;direction:ltr;text-anchor:start;fill:#000000;stroke:#a020f0;stroke-width:0"
       x="647.52905"
       y="456.42792"
       id="text85"><tspan
         sodipodi:role="line"
         id="tspan85-2"
         style="stroke-width:0"
         x="647.52905"
         y="456.42792">vs</tspan></text>
    <line
       x1="672.58112"
       y1="451.12845"
       x2="690.91827"
       y2="451.12845"
       style="stroke:#f4a2a4;stroke-width:4.21419;stroke-linecap:butt"
       id="line33-2-0" />
    <line
       x1="624.19989"
       y1="450.63498"
       x2="642.53705"
       y2="450.63498"
       style="stroke:#59bdb2;stroke-width:4.21419;stroke-linecap:butt"
       id="line31-0-1" />
    <text
       xml:space="preserve"
       style="font-style:normal;font-variant:normal;font-weight:bold;font-stretch:normal;font-size:18.0447px;line-height:0;font-family:Arial;-inkscape-font-specification:'Arial Bold';text-align:start;writing-mode:lr-tb;direction:ltr;text-anchor:start;fill:#000000;stroke:#a020f0;stroke-width:0"
       x="465.51849"
       y="676.64911"
       id="text83-7"><tspan
         sodipodi:role="line"
         id="tspan83-4"
         style="font-style:normal;font-variant:normal;font-weight:normal;font-stretch:normal;font-size:18.0447px;font-family:Arial;-inkscape-font-specification:Arial;stroke-width:0"
         x="465.51849"
         y="676.64911">(days)</tspan></text>
  </g>
</svg>
