<?xml version="1.0" encoding="utf-8"?>
<!-- Generator: Adobe Illustrator 24.0.3, SVG Export Plug-In . SVG Version: 6.00 Build 0)  -->
<svg version="1.1" id="Layer_1" xmlns="http://www.w3.org/2000/svg" xmlns:xlink="http://www.w3.org/1999/xlink" x="0px" y="0px"
	 viewBox="0 0 595.3 841.9" style="enable-background:new 0 0 595.3 841.9;" xml:space="preserve">
<style type="text/css">
	.st0{font-family:'ArialMT';}
	.st1{font-size:8px;}
	.st2{font-size:10px;}
	.st3{fill:#FFFFFF;}
	.st4{fill:#FFFCFC;}
	.st5{fill:#FFF9F9;}
	.st6{fill:#FFF7F7;}
	.st7{fill:#FFF4F4;}
	.st8{fill:#FFF2F2;}
	.st9{fill:#FFEFEF;}
	.st10{fill:#FFECEC;}
	.st11{fill:#FFEAEA;}
	.st12{fill:#FFE7E7;}
	.st13{fill:#FFE5E5;}
	.st14{fill:#FFE2E2;}
	.st15{fill:#FFE0E0;}
	.st16{fill:#FFDDDD;}
	.st17{fill:#FFDADA;}
	.st18{fill:#FFD8D8;}
	.st19{fill:#FFD5D5;}
	.st20{fill:#FFD3D3;}
	.st21{fill:#FFD0D0;}
	.st22{fill:#FFCECE;}
	.st23{fill:#FFCBCB;}
	.st24{fill:#FFC8C8;}
	.st25{fill:#FFC6C6;}
	.st26{fill:#FFC3C3;}
	.st27{fill:#FFC1C1;}
	.st28{fill:#FFBEBE;}
	.st29{fill:#FFBCBC;}
	.st30{fill:#FFB9B9;}
	.st31{fill:#FFB6B6;}
	.st32{fill:#FFB4B4;}
	.st33{fill:#FFB1B1;}
	.st34{fill:#FFAFAF;}
	.st35{fill:#FFACAC;}
	.st36{fill:#FFAAAA;}
	.st37{fill:#FFA7A7;}
	.st38{fill:#FFA4A4;}
	.st39{fill:#FFA2A2;}
	.st40{fill:#FF9F9F;}
	.st41{fill:#FF9D9D;}
	.st42{fill:#FF9A9A;}
	.st43{fill:#FF9797;}
	.st44{fill:#FF9595;}
	.st45{fill:#FF9292;}
	.st46{fill:#FF9090;}
	.st47{fill:#FF8D8D;}
	.st48{fill:#FF8B8B;}
	.st49{fill:#FF8888;}
	.st50{fill:#FF8585;}
	.st51{fill:#FF8383;}
	.st52{fill:#FF8080;}
	.st53{fill:#FF7E7E;}
	.st54{fill:#FF7B7B;}
	.st55{fill:#FF7979;}
	.st56{fill:#FF7676;}
	.st57{fill:#FF7373;}
	.st58{fill:#FF7171;}
	.st59{fill:#FF6E6E;}
	.st60{fill:#FF6C6C;}
	.st61{fill:#FF6969;}
	.st62{fill:#FF6767;}
	.st63{fill:#FF6464;}
	.st64{fill:#FF6161;}
	.st65{fill:#FF5F5F;}
	.st66{fill:#FF5C5C;}
	.st67{fill:#FF5A5A;}
	.st68{fill:#FF5757;}
	.st69{fill:#FF5454;}
	.st70{fill:#FF5252;}
	.st71{fill:#FF4F4F;}
	.st72{fill:#FF4D4D;}
	.st73{fill:#FF4A4A;}
	.st74{fill:#FF4848;}
	.st75{fill:#FF4545;}
	.st76{fill:#FF4242;}
	.st77{fill:#FF4040;}
	.st78{fill:#FF3D3D;}
	.st79{fill:#FF3B3B;}
	.st80{fill:#FF3838;}
	.st81{fill:#FF3636;}
	.st82{fill:#FF3333;}
	.st83{fill:#FF3030;}
	.st84{fill:#FF2E2E;}
	.st85{fill:#FF2B2B;}
	.st86{fill:#FF2929;}
	.st87{fill:#FF2626;}
	.st88{fill:#FF2424;}
	.st89{fill:#FF2121;}
	.st90{fill:#FF1E1E;}
	.st91{fill:#FF1C1C;}
	.st92{fill:#FF1919;}
	.st93{fill:#FF1717;}
	.st94{fill:#FF1414;}
	.st95{fill:#FF1212;}
	.st96{fill:#FF0F0F;}
	.st97{fill:#FF0C0C;}
	.st98{fill:#FF0A0A;}
	.st99{fill:#FF0707;}
	.st100{fill:#FF0505;}
	.st101{fill:#FF0202;}
	.st102{fill:#FF0000;}
	.st103{fill:none;stroke:#E6E6E6;stroke-width:0.5;stroke-miterlimit:10;}
	.st104{fill:none;stroke:#FFFFFF;stroke-width:0.6;stroke-linecap:round;stroke-linejoin:round;stroke-miterlimit:10;}
	.st105{fill:#DDDDDD;}
	.st106{fill:#4D4D4D;}
	.st107{font-family:'Helvetica-Light';}
	.st108{fill:#C6E2E9;}
	.st109{fill:#C2E0E7;}
	.st110{fill:#BFDEE5;}
	.st111{fill:#BBDCE3;}
	.st112{fill:#B8DBE1;}
	.st113{fill:#B4D9DF;}
	.st114{fill:#B1D7DD;}
	.st115{fill:#AED5DB;}
	.st116{fill:#AAD4D9;}
	.st117{fill:#A7D2D7;}
	.st118{fill:#A3D0D5;}
	.st119{fill:#A0CFD3;}
	.st120{fill:#9CCDD1;}
	.st121{fill:#99CBCF;}
	.st122{fill:#96CACD;}
	.st123{fill:#92C8CB;}
	.st124{fill:#8FC6C9;}
	.st125{fill:#8BC4C7;}
	.st126{fill:#88C3C5;}
	.st127{fill:#84C1C3;}
	.st128{fill:#81BFC1;}
	.st129{fill:#7EBEBF;}
	.st130{fill:#7ABCBD;}
	.st131{fill:#77BABB;}
	.st132{fill:#73B8B9;}
	.st133{fill:#70B7B7;}
	.st134{fill:#6CB5B5;}
	.st135{fill:#69B3B3;}
	.st136{fill:#66B2B2;}
	.st137{fill:#62AEAE;}
	.st138{fill:#5EABAB;}
	.st139{fill:#5BA8A8;}
	.st140{fill:#57A5A5;}
	.st141{fill:#53A2A2;}
	.st142{fill:#509F9F;}
	.st143{fill:#4C9C9C;}
	.st144{fill:#489999;}
	.st145{fill:#459696;}
	.st146{fill:#419292;}
	.st147{fill:#3D8F8F;}
	.st148{fill:#3A8C8C;}
	.st149{fill:#368989;}
	.st150{fill:#338686;}
	.st151{fill:#2F8383;}
	.st152{fill:#2B8080;}
	.st153{fill:#287D7D;}
	.st154{fill:#247A7A;}
	.st155{fill:#207676;}
	.st156{fill:#1D7373;}
	.st157{fill:#197070;}
	.st158{fill:#156D6D;}
	.st159{fill:#126A6A;}
	.st160{fill:#0E6767;}
	.st161{fill:#0A6464;}
	.st162{fill:#076161;}
	.st163{fill:#035E5E;}
</style>
<text transform="matrix(1 0 0 1 111.1284 24.4386)"><tspan x="0" y="0" class="st0 st1">CPTAC and TCGA p</tspan><tspan x="70.09" y="0" class="st0 st1">atients&apos; subtypes distri</tspan><tspan x="148.54" y="0" class="st0 st1">b</tspan><tspan x="152.84" y="0" class="st0 st1">ution</tspan><tspan x="35.97" y="9.6" class="st0 st1">similarity across signatures </tspan></text>
<text transform="matrix(1 0 0 1 378.2018 25.4386)"><tspan x="0" y="0" class="st0 st1">TCGA patients’ Overall Survival </tspan><tspan x="6.86" y="9.6" class="st0 st1">difference across signatures</tspan></text>
<text transform="matrix(1 0 0 1 28.3452 19.155)" class="st0 st2">A</text>
<text transform="matrix(1 0 0 1 329.735 19.155)" class="st0 st2">B</text>
<text transform="matrix(0.4695 -0.8829 0.8829 0.4695 408.4728 303.598)" class="st0 st1">all signatures</text>
<text transform="matrix(0.4695 -0.8829 0.8829 0.4695 426.2259 304.7708)"><tspan x="0" y="0" class="st0 st1">basal-specific</tspan><tspan x="11.55" y="9.6" class="st0 st1">signatures</tspan></text>
<g>
	<rect x="291.28" y="162.24" class="st3" width="5.76" height="0.86"/>
	<rect x="291.28" y="161.37" class="st4" width="5.76" height="0.86"/>
	<rect x="291.28" y="160.51" class="st5" width="5.76" height="0.86"/>
	<rect x="291.28" y="159.65" class="st6" width="5.76" height="0.86"/>
	<rect x="291.28" y="158.78" class="st7" width="5.76" height="0.86"/>
	<rect x="291.28" y="157.92" class="st8" width="5.76" height="0.86"/>
	<rect x="291.28" y="157.05" class="st9" width="5.76" height="0.86"/>
	<rect x="291.28" y="156.19" class="st10" width="5.76" height="0.86"/>
	<rect x="291.28" y="155.33" class="st11" width="5.76" height="0.86"/>
	<rect x="291.28" y="154.46" class="st12" width="5.76" height="0.86"/>
	<rect x="291.28" y="153.6" class="st13" width="5.76" height="0.86"/>
	<rect x="291.28" y="152.73" class="st14" width="5.76" height="0.86"/>
	<rect x="291.28" y="151.87" class="st15" width="5.76" height="0.86"/>
	<rect x="291.28" y="151.01" class="st16" width="5.76" height="0.86"/>
	<rect x="291.28" y="150.14" class="st17" width="5.76" height="0.86"/>
	<rect x="291.28" y="149.28" class="st18" width="5.76" height="0.86"/>
	<rect x="291.28" y="148.41" class="st19" width="5.76" height="0.86"/>
	<rect x="291.28" y="147.55" class="st20" width="5.76" height="0.86"/>
	<rect x="291.28" y="146.69" class="st21" width="5.76" height="0.86"/>
	<rect x="291.28" y="145.82" class="st22" width="5.76" height="0.86"/>
	<rect x="291.28" y="144.96" class="st23" width="5.76" height="0.86"/>
	<rect x="291.28" y="144.09" class="st24" width="5.76" height="0.86"/>
	<rect x="291.28" y="143.23" class="st25" width="5.76" height="0.86"/>
	<rect x="291.28" y="142.37" class="st26" width="5.76" height="0.86"/>
	<rect x="291.28" y="141.5" class="st27" width="5.76" height="0.86"/>
	<rect x="291.28" y="140.64" class="st28" width="5.76" height="0.86"/>
	<rect x="291.28" y="139.77" class="st29" width="5.76" height="0.86"/>
	<rect x="291.28" y="138.91" class="st30" width="5.76" height="0.86"/>
	<rect x="291.28" y="138.05" class="st31" width="5.76" height="0.86"/>
	<rect x="291.28" y="137.18" class="st32" width="5.76" height="0.86"/>
	<rect x="291.28" y="136.32" class="st33" width="5.76" height="0.86"/>
	<rect x="291.28" y="135.45" class="st34" width="5.76" height="0.86"/>
	<rect x="291.28" y="134.59" class="st35" width="5.76" height="0.86"/>
	<rect x="291.28" y="133.73" class="st36" width="5.76" height="0.86"/>
	<rect x="291.28" y="132.86" class="st37" width="5.76" height="0.86"/>
	<rect x="291.28" y="132" class="st38" width="5.76" height="0.86"/>
	<rect x="291.28" y="131.13" class="st39" width="5.76" height="0.86"/>
	<rect x="291.28" y="130.27" class="st40" width="5.76" height="0.86"/>
	<rect x="291.28" y="129.41" class="st41" width="5.76" height="0.86"/>
	<rect x="291.28" y="128.54" class="st42" width="5.76" height="0.86"/>
	<rect x="291.28" y="127.68" class="st43" width="5.76" height="0.86"/>
	<rect x="291.28" y="126.81" class="st44" width="5.76" height="0.86"/>
	<rect x="291.28" y="125.95" class="st45" width="5.76" height="0.86"/>
	<rect x="291.28" y="125.09" class="st46" width="5.76" height="0.86"/>
	<rect x="291.28" y="124.22" class="st47" width="5.76" height="0.86"/>
	<rect x="291.28" y="123.36" class="st48" width="5.76" height="0.86"/>
	<rect x="291.28" y="122.49" class="st49" width="5.76" height="0.86"/>
	<rect x="291.28" y="121.63" class="st50" width="5.76" height="0.86"/>
	<rect x="291.28" y="120.77" class="st51" width="5.76" height="0.86"/>
	<rect x="291.28" y="119.9" class="st52" width="5.76" height="0.86"/>
	<rect x="291.28" y="119.04" class="st53" width="5.76" height="0.86"/>
	<rect x="291.28" y="118.17" class="st54" width="5.76" height="0.86"/>
	<rect x="291.28" y="117.31" class="st55" width="5.76" height="0.86"/>
	<rect x="291.28" y="116.45" class="st56" width="5.76" height="0.86"/>
	<rect x="291.28" y="115.58" class="st57" width="5.76" height="0.86"/>
	<rect x="291.28" y="114.72" class="st58" width="5.76" height="0.86"/>
	<rect x="291.28" y="113.85" class="st59" width="5.76" height="0.86"/>
	<rect x="291.28" y="112.99" class="st60" width="5.76" height="0.86"/>
	<rect x="291.28" y="112.13" class="st61" width="5.76" height="0.86"/>
	<rect x="291.28" y="111.26" class="st62" width="5.76" height="0.86"/>
	<rect x="291.28" y="110.4" class="st63" width="5.76" height="0.86"/>
	<rect x="291.28" y="109.53" class="st64" width="5.76" height="0.86"/>
	<rect x="291.28" y="108.67" class="st65" width="5.76" height="0.86"/>
	<rect x="291.28" y="107.81" class="st66" width="5.76" height="0.86"/>
	<rect x="291.28" y="106.94" class="st67" width="5.76" height="0.86"/>
	<rect x="291.28" y="106.08" class="st68" width="5.76" height="0.86"/>
	<rect x="291.28" y="105.21" class="st69" width="5.76" height="0.86"/>
	<rect x="291.28" y="104.35" class="st70" width="5.76" height="0.86"/>
	<rect x="291.28" y="103.49" class="st71" width="5.76" height="0.86"/>
	<rect x="291.28" y="102.62" class="st72" width="5.76" height="0.86"/>
	<rect x="291.28" y="101.76" class="st73" width="5.76" height="0.86"/>
	<rect x="291.28" y="100.89" class="st74" width="5.76" height="0.86"/>
	<rect x="291.28" y="100.03" class="st75" width="5.76" height="0.86"/>
	<rect x="291.28" y="99.17" class="st76" width="5.76" height="0.86"/>
	<rect x="291.28" y="98.3" class="st77" width="5.76" height="0.86"/>
	<rect x="291.28" y="97.44" class="st78" width="5.76" height="0.86"/>
	<rect x="291.28" y="96.57" class="st79" width="5.76" height="0.86"/>
	<rect x="291.28" y="95.71" class="st80" width="5.76" height="0.86"/>
	<rect x="291.28" y="94.85" class="st81" width="5.76" height="0.86"/>
	<rect x="291.28" y="93.98" class="st82" width="5.76" height="0.86"/>
	<rect x="291.28" y="93.12" class="st83" width="5.76" height="0.86"/>
	<rect x="291.28" y="92.25" class="st84" width="5.76" height="0.86"/>
	<rect x="291.28" y="91.39" class="st85" width="5.76" height="0.86"/>
	<rect x="291.28" y="90.53" class="st86" width="5.76" height="0.86"/>
	<rect x="291.28" y="89.66" class="st87" width="5.76" height="0.86"/>
	<rect x="291.28" y="88.8" class="st88" width="5.76" height="0.86"/>
	<rect x="291.28" y="87.93" class="st89" width="5.76" height="0.86"/>
	<rect x="291.28" y="87.07" class="st90" width="5.76" height="0.86"/>
	<rect x="291.28" y="86.21" class="st91" width="5.76" height="0.86"/>
	<rect x="291.28" y="85.34" class="st92" width="5.76" height="0.86"/>
	<rect x="291.28" y="84.48" class="st93" width="5.76" height="0.86"/>
	<rect x="291.28" y="83.61" class="st94" width="5.76" height="0.86"/>
	<rect x="291.28" y="82.75" class="st95" width="5.76" height="0.86"/>
	<rect x="291.28" y="81.89" class="st96" width="5.76" height="0.86"/>
	<rect x="291.28" y="81.02" class="st97" width="5.76" height="0.86"/>
	<rect x="291.28" y="80.16" class="st98" width="5.76" height="0.86"/>
	<rect x="291.28" y="79.29" class="st99" width="5.76" height="0.86"/>
	<rect x="291.28" y="78.43" class="st100" width="5.76" height="0.86"/>
	<rect x="291.28" y="77.57" class="st101" width="5.76" height="0.86"/>
	<rect x="291.28" y="76.7" class="st102" width="5.76" height="0.86"/>
	<text transform="matrix(0 1 -1 0 300.3208 90.0603)" class="st0 st1">Similarity Index</text>
	<text transform="matrix(1 0 0 1 286.1078 79.7256)" class="st0 st1">1</text>
	<text transform="matrix(1 0 0 1 286.1075 164.2409)" class="st0 st1">0</text>
	<rect x="291.28" y="76.97" class="st103" width="5.76" height="87.59"/>
</g>
<g>
	<rect x="106.84" y="40.63" class="st30" width="24" height="24"/>
	<rect x="106.84" y="40.63" class="st104" width="24" height="24"/>
	<rect x="106.84" y="64.63" class="st53" width="24" height="24"/>
	<rect x="106.84" y="64.63" class="st104" width="24" height="24"/>
	<rect x="106.84" y="88.63" class="st47" width="24" height="24"/>
	<rect x="106.84" y="88.63" class="st104" width="24" height="24"/>
	<rect x="106.84" y="112.63" class="st80" width="24" height="24"/>
	<rect x="106.84" y="112.63" class="st104" width="24" height="24"/>
	<rect x="106.84" y="136.63" class="st10" width="24" height="24"/>
	<rect x="106.84" y="136.63" class="st104" width="24" height="24"/>
	<rect x="106.84" y="160.63" class="st34" width="24" height="24"/>
	<rect x="106.84" y="160.63" class="st104" width="24" height="24"/>
	<rect x="106.84" y="184.63" class="st4" width="24" height="24"/>
	<rect x="106.84" y="184.63" class="st104" width="24" height="24"/>
	<rect x="106.84" y="208.63" class="st105" width="24" height="24"/>
	<rect x="106.84" y="208.63" class="st104" width="24" height="24"/>
	<rect x="106.84" y="232.63" class="st105" width="24" height="24"/>
	<rect x="106.84" y="232.63" class="st104" width="24" height="24"/>
	<rect x="130.84" y="40.63" class="st5" width="24" height="24"/>
	<rect x="130.84" y="40.63" class="st104" width="24" height="24"/>
	<rect x="130.84" y="64.63" class="st3" width="24" height="24"/>
	<rect x="130.84" y="64.63" class="st104" width="24" height="24"/>
	<rect x="130.84" y="88.63" class="st72" width="24" height="24"/>
	<rect x="130.84" y="88.63" class="st104" width="24" height="24"/>
	<rect x="130.84" y="112.63" class="st3" width="24" height="24"/>
	<rect x="130.84" y="112.63" class="st104" width="24" height="24"/>
	<rect x="130.84" y="136.63" class="st102" width="24" height="24"/>
	<rect x="130.84" y="136.63" class="st104" width="24" height="24"/>
	<rect x="130.84" y="160.63" class="st30" width="24" height="24"/>
	<rect x="130.84" y="160.63" class="st104" width="24" height="24"/>
	<rect x="130.84" y="184.63" class="st3" width="24" height="24"/>
	<rect x="130.84" y="184.63" class="st104" width="24" height="24"/>
	<rect x="130.84" y="208.63" class="st6" width="24" height="24"/>
	<rect x="130.84" y="208.63" class="st104" width="24" height="24"/>
	<rect x="130.84" y="232.63" class="st105" width="24" height="24"/>
	<rect x="130.84" y="232.63" class="st104" width="24" height="24"/>
	<rect x="154.84" y="40.63" class="st77" width="24" height="24"/>
	<rect x="154.84" y="40.63" class="st104" width="24" height="24"/>
	<rect x="154.84" y="64.63" class="st4" width="24" height="24"/>
	<rect x="154.84" y="64.63" class="st104" width="24" height="24"/>
	<rect x="154.84" y="88.63" class="st4" width="24" height="24"/>
	<rect x="154.84" y="88.63" class="st104" width="24" height="24"/>
	<rect x="154.84" y="112.63" class="st46" width="24" height="24"/>
	<rect x="154.84" y="112.63" class="st104" width="24" height="24"/>
	<rect x="154.84" y="136.63" class="st5" width="24" height="24"/>
	<rect x="154.84" y="136.63" class="st104" width="24" height="24"/>
	<rect x="154.84" y="160.63" class="st3" width="24" height="24"/>
	<rect x="154.84" y="160.63" class="st104" width="24" height="24"/>
	<rect x="154.84" y="184.63" class="st23" width="24" height="24"/>
	<rect x="154.84" y="184.63" class="st104" width="24" height="24"/>
	<rect x="154.84" y="208.63" class="st3" width="24" height="24"/>
	<rect x="154.84" y="208.63" class="st104" width="24" height="24"/>
	<rect x="154.84" y="232.63" class="st4" width="24" height="24"/>
	<rect x="154.84" y="232.63" class="st104" width="24" height="24"/>
	<rect x="178.84" y="40.63" class="st73" width="24" height="24"/>
	<rect x="178.84" y="40.63" class="st104" width="24" height="24"/>
	<rect x="178.84" y="64.63" class="st32" width="24" height="24"/>
	<rect x="178.84" y="64.63" class="st104" width="24" height="24"/>
	<rect x="178.84" y="88.63" class="st4" width="24" height="24"/>
	<rect x="178.84" y="88.63" class="st104" width="24" height="24"/>
	<rect x="178.84" y="112.63" class="st35" width="24" height="24"/>
	<rect x="178.84" y="112.63" class="st104" width="24" height="24"/>
	<rect x="178.84" y="136.63" class="st3" width="24" height="24"/>
	<rect x="178.84" y="136.63" class="st104" width="24" height="24"/>
	<rect x="178.84" y="160.63" class="st8" width="24" height="24"/>
	<rect x="178.84" y="160.63" class="st104" width="24" height="24"/>
	<rect x="178.84" y="184.63" class="st59" width="24" height="24"/>
	<rect x="178.84" y="184.63" class="st104" width="24" height="24"/>
	<rect x="178.84" y="208.63" class="st36" width="24" height="24"/>
	<rect x="178.84" y="208.63" class="st104" width="24" height="24"/>
	<rect x="178.84" y="232.63" class="st25" width="24" height="24"/>
	<rect x="178.84" y="232.63" class="st104" width="24" height="24"/>
	<rect x="202.84" y="40.63" class="st97" width="24" height="24"/>
	<rect x="202.84" y="40.63" class="st104" width="24" height="24"/>
	<rect x="202.84" y="64.63" class="st92" width="24" height="24"/>
	<rect x="202.84" y="64.63" class="st104" width="24" height="24"/>
	<rect x="202.84" y="88.63" class="st3" width="24" height="24"/>
	<rect x="202.84" y="88.63" class="st104" width="24" height="24"/>
	<rect x="202.84" y="112.63" class="st102" width="24" height="24"/>
	<rect x="202.84" y="112.63" class="st104" width="24" height="24"/>
	<rect x="202.84" y="136.63" class="st4" width="24" height="24"/>
	<rect x="202.84" y="136.63" class="st104" width="24" height="24"/>
	<rect x="202.84" y="160.63" class="st3" width="24" height="24"/>
	<rect x="202.84" y="160.63" class="st104" width="24" height="24"/>
	<rect x="202.84" y="184.63" class="st3" width="24" height="24"/>
	<rect x="202.84" y="184.63" class="st104" width="24" height="24"/>
	<rect x="202.84" y="208.63" class="st105" width="24" height="24"/>
	<rect x="202.84" y="208.63" class="st104" width="24" height="24"/>
	<rect x="202.84" y="232.63" class="st3" width="24" height="24"/>
	<rect x="202.84" y="232.63" class="st104" width="24" height="24"/>
	<rect x="226.84" y="40.63" class="st105" width="24" height="24"/>
	<rect x="226.84" y="40.63" class="st104" width="24" height="24"/>
	<rect x="226.84" y="64.63" class="st4" width="24" height="24"/>
	<rect x="226.84" y="64.63" class="st104" width="24" height="24"/>
	<rect x="226.84" y="88.63" class="st39" width="24" height="24"/>
	<rect x="226.84" y="88.63" class="st104" width="24" height="24"/>
	<rect x="226.84" y="112.63" class="st4" width="24" height="24"/>
	<rect x="226.84" y="112.63" class="st104" width="24" height="24"/>
	<rect x="226.84" y="136.63" class="st4" width="24" height="24"/>
	<rect x="226.84" y="136.63" class="st104" width="24" height="24"/>
	<rect x="226.84" y="160.63" class="st34" width="24" height="24"/>
	<rect x="226.84" y="160.63" class="st104" width="24" height="24"/>
	<rect x="226.84" y="184.63" class="st9" width="24" height="24"/>
	<rect x="226.84" y="184.63" class="st104" width="24" height="24"/>
	<rect x="226.84" y="208.63" class="st16" width="24" height="24"/>
	<rect x="226.84" y="208.63" class="st104" width="24" height="24"/>
	<rect x="226.84" y="232.63" class="st9" width="24" height="24"/>
	<rect x="226.84" y="232.63" class="st104" width="24" height="24"/>
	<rect x="250.84" y="40.63" class="st3" width="24" height="24"/>
	<rect x="250.84" y="40.63" class="st104" width="24" height="24"/>
	<rect x="250.84" y="64.63" class="st39" width="24" height="24"/>
	<rect x="250.84" y="64.63" class="st104" width="24" height="24"/>
	<rect x="250.84" y="88.63" class="st50" width="24" height="24"/>
	<rect x="250.84" y="88.63" class="st104" width="24" height="24"/>
	<rect x="250.84" y="112.63" class="st10" width="24" height="24"/>
	<rect x="250.84" y="112.63" class="st104" width="24" height="24"/>
	<rect x="250.84" y="136.63" class="st105" width="24" height="24"/>
	<rect x="250.84" y="136.63" class="st104" width="24" height="24"/>
	<rect x="250.84" y="160.63" class="st105" width="24" height="24"/>
	<rect x="250.84" y="160.63" class="st104" width="24" height="24"/>
	<rect x="250.84" y="184.63" class="st25" width="24" height="24"/>
	<rect x="250.84" y="184.63" class="st104" width="24" height="24"/>
	<rect x="250.84" y="208.63" class="st105" width="24" height="24"/>
	<rect x="250.84" y="208.63" class="st104" width="24" height="24"/>
	<rect x="250.84" y="232.63" class="st7" width="24" height="24"/>
	<rect x="250.84" y="232.63" class="st104" width="24" height="24"/>
	<text transform="matrix(1 0 0 1 111.0593 55.4991)" class="st106 st107 st1">0.27</text>
	<text transform="matrix(1 0 0 1 111.0593 79.4991)" class="st106 st107 st1">0.50</text>
	<text transform="matrix(1 0 0 1 111.0593 103.4991)" class="st106 st107 st1">0.45</text>
	<text transform="matrix(1 0 0 1 111.0593 127.4991)" class="st106 st107 st1">0.77</text>
	<text transform="matrix(1 0 0 1 111.0593 151.4991)" class="st106 st107 st1">0.07</text>
	<text transform="matrix(1 0 0 1 111.0593 175.4991)" class="st106 st107 st1">0.31</text>
	<text transform="matrix(1 0 0 1 111.0593 199.4991)" class="st106 st107 st1">0.01</text>
	<text transform="matrix(1 0 0 1 113.2829 223.4991)" class="st106 st107 st1">NA</text>
	<text transform="matrix(1 0 0 1 113.2829 247.4991)" class="st106 st107 st1">NA</text>
	<text transform="matrix(1 0 0 1 135.0593 55.4991)" class="st106 st107 st1">0.03</text>
	<text transform="matrix(1 0 0 1 135.0593 79.4991)" class="st106 st107 st1">0.00</text>
	<text transform="matrix(1 0 0 1 135.0593 103.4991)" class="st106 st107 st1">0.70</text>
	<text transform="matrix(1 0 0 1 135.0593 127.4991)" class="st106 st107 st1">0.00</text>
	<text transform="matrix(1 0 0 1 135.0593 151.4991)" class="st106 st107 st1">1.00</text>
	<text transform="matrix(1 0 0 1 135.0593 175.4991)" class="st106 st107 st1">0.27</text>
	<text transform="matrix(1 0 0 1 135.0593 199.4991)" class="st106 st107 st1">0.00</text>
	<text transform="matrix(1 0 0 1 135.0593 223.4991)" class="st106 st107 st1">0.04</text>
	<text transform="matrix(1 0 0 1 137.2829 247.4991)" class="st106 st107 st1">NA</text>
	<text transform="matrix(1 0 0 1 159.0593 55.4991)" class="st106 st107 st1">0.74</text>
	<text transform="matrix(1 0 0 1 159.0593 79.4991)" class="st106 st107 st1">0.02</text>
	<text transform="matrix(1 0 0 1 159.0593 103.4991)" class="st106 st107 st1">0.02</text>
	<text transform="matrix(1 0 0 1 159.0593 127.4991)" class="st106 st107 st1">0.44</text>
	<text transform="matrix(1 0 0 1 159.0593 151.4991)" class="st106 st107 st1">0.02</text>
	<text transform="matrix(1 0 0 1 159.0593 175.4991)" class="st106 st107 st1">0.01</text>
	<text transform="matrix(1 0 0 1 159.0593 199.4991)" class="st106 st107 st1">0.21</text>
	<text transform="matrix(1 0 0 1 159.0593 223.4991)" class="st106 st107 st1">0.00</text>
	<text transform="matrix(1 0 0 1 159.0593 247.4991)" class="st106 st107 st1">0.01</text>
	<text transform="matrix(1 0 0 1 183.0593 55.4991)" class="st106 st107 st1">0.71</text>
	<text transform="matrix(1 0 0 1 183.0593 79.4991)" class="st106 st107 st1">0.29</text>
	<text transform="matrix(1 0 0 1 183.0593 103.4991)" class="st106 st107 st1">0.01</text>
	<text transform="matrix(1 0 0 1 183.0593 127.4991)" class="st106 st107 st1">0.32</text>
	<text transform="matrix(1 0 0 1 183.0593 151.4991)" class="st106 st107 st1">0.00</text>
	<text transform="matrix(1 0 0 1 183.0593 175.4991)" class="st106 st107 st1">0.05</text>
	<text transform="matrix(1 0 0 1 183.0593 199.4991)" class="st106 st107 st1">0.57</text>
	<text transform="matrix(1 0 0 1 183.0593 223.4991)" class="st106 st107 st1">0.33</text>
	<text transform="matrix(1 0 0 1 183.0593 247.4991)" class="st106 st107 st1">0.22</text>
	<text transform="matrix(1 0 0 1 207.0593 55.4991)" class="st106 st107 st1">0.94</text>
	<text transform="matrix(1 0 0 1 207.0593 79.4991)" class="st106 st107 st1">0.89</text>
	<text transform="matrix(1 0 0 1 207.0593 103.4991)" class="st106 st107 st1">0.00</text>
	<text transform="matrix(1 0 0 1 207.0593 127.4991)" class="st106 st107 st1">1.00</text>
	<text transform="matrix(1 0 0 1 207.0593 151.4991)" class="st106 st107 st1">0.01</text>
	<text transform="matrix(1 0 0 1 207.0593 175.4991)" class="st106 st107 st1">0.00</text>
	<text transform="matrix(1 0 0 1 207.0593 199.4991)" class="st106 st107 st1">0.00</text>
	<text transform="matrix(1 0 0 1 209.2829 223.4991)" class="st106 st107 st1">NA</text>
	<text transform="matrix(1 0 0 1 207.0593 247.4991)" class="st106 st107 st1">0.00</text>
	<text transform="matrix(1 0 0 1 233.2829 55.4991)" class="st106 st107 st1">NA</text>
	<text transform="matrix(1 0 0 1 231.0588 79.4991)" class="st106 st107 st1">0.01</text>
	<text transform="matrix(1 0 0 1 231.0588 103.4991)" class="st106 st107 st1">0.36</text>
	<text transform="matrix(1 0 0 1 231.0588 127.4991)" class="st106 st107 st1">0.01</text>
	<text transform="matrix(1 0 0 1 231.0588 151.4991)" class="st106 st107 st1">0.01</text>
	<text transform="matrix(1 0 0 1 231.0588 175.4991)" class="st106 st107 st1">0.31</text>
	<text transform="matrix(1 0 0 1 231.0588 199.4991)" class="st106 st107 st1">0.06</text>
	<text transform="matrix(1 0 0 1 231.0588 223.4991)" class="st106 st107 st1">0.13</text>
	<text transform="matrix(1 0 0 1 231.0588 247.4991)" class="st106 st107 st1">0.07</text>
	<text transform="matrix(1 0 0 1 255.0588 55.4991)" class="st106 st107 st1">0.00</text>
	<text transform="matrix(1 0 0 1 255.0588 79.4991)" class="st106 st107 st1">0.36</text>
	<text transform="matrix(1 0 0 1 255.0588 103.4991)" class="st106 st107 st1">0.47</text>
	<text transform="matrix(1 0 0 1 255.0588 127.4991)" class="st106 st107 st1">0.07</text>
	<text transform="matrix(1 0 0 1 257.2829 151.4991)" class="st106 st107 st1">NA</text>
	<text transform="matrix(1 0 0 1 257.2829 175.4991)" class="st106 st107 st1">NA</text>
	<text transform="matrix(1 0 0 1 255.0588 199.4991)" class="st106 st107 st1">0.23</text>
	<text transform="matrix(1 0 0 1 257.2829 223.4991)" class="st106 st107 st1">NA</text>
	<text transform="matrix(1 0 0 1 255.0588 247.4991)" class="st106 st107 st1">0.04</text>
</g>
<text transform="matrix(1 0 0 1 81.7126 73.5024)"><tspan x="0" y="0" class="st0 st1">tSNE+</tspan><tspan x="-6" y="9.6" class="st0 st1">KMeans</tspan></text>
<text transform="matrix(1 0 0 1 81.7126 98.7239)"><tspan x="0" y="0" class="st0 st1">tSNE+</tspan><tspan x="-57.13" y="9.6" class="st0 st1">Hierarchical Clustering</tspan></text>
<text transform="matrix(1 0 0 1 85.6633 146.8166)"><tspan x="0" y="0" class="st0 st1">PCA+</tspan><tspan x="-51.14" y="9.6" class="st0 st1">Hierarchical Clustering</tspan></text>
<text transform="matrix(1 0 0 1 77.2751 193.5577)"><tspan x="0" y="0" class="st0 st1">MOFA+</tspan><tspan x="-1.57" y="9.6" class="st0 st1">KMeans</tspan></text>
<text transform="matrix(1 0 0 1 75.7087 225.0793)" class="st0 st1">KMeans</text>
<text transform="matrix(1 0 0 1 24.5835 247.2473)" class="st0 st1">Hierarchical Clustering</text>
<text transform="matrix(1 0 0 1 55.562 56.0449)"><tspan x="0" y="0" class="st0 st1">P</tspan><tspan x="4.9" y="0" class="st0 st1">atient</tspan><tspan x="24.47" y="0" class="st0 st1">P</tspan><tspan x="29.38" y="0" class="st0 st1">rofiler</tspan></text>
<text transform="matrix(1 0 0 1 77.2747 170.3742)"><tspan x="0" y="0" class="st0 st1">MOFA+</tspan><tspan x="-52.69" y="9.6" class="st0 st1">Hierarchical Clustering</tspan></text>
<text transform="matrix(0.4695 -0.8829 0.8829 0.4695 105.8292 296.5461)"><tspan x="0" y="0" class="st0 st1">si</tspan><tspan x="5.78" y="0" class="st0 st1">g</tspan><tspan x="9.79" y="0" class="st0 st1">nature 1</tspan></text>
<text transform="matrix(0.4695 -0.8829 0.8829 0.4695 129.8295 296.546)"><tspan x="0" y="0" class="st0 st1">si</tspan><tspan x="5.78" y="0" class="st0 st1">g</tspan><tspan x="9.79" y="0" class="st0 st1">nature 2</tspan></text>
<text transform="matrix(0.4695 -0.8829 0.8829 0.4695 153.8289 296.5459)"><tspan x="0" y="0" class="st0 st1">si</tspan><tspan x="5.78" y="0" class="st0 st1">g</tspan><tspan x="9.79" y="0" class="st0 st1">nature 3</tspan></text>
<text transform="matrix(0.4695 -0.8829 0.8829 0.4695 177.8292 296.5461)"><tspan x="0" y="0" class="st0 st1">si</tspan><tspan x="5.78" y="0" class="st0 st1">g</tspan><tspan x="9.79" y="0" class="st0 st1">nature 4</tspan></text>
<text transform="matrix(0.4695 -0.8829 0.8829 0.4695 201.8278 296.5461)"><tspan x="0" y="0" class="st0 st1">si</tspan><tspan x="5.78" y="0" class="st0 st1">g</tspan><tspan x="9.79" y="0" class="st0 st1">nature 5</tspan></text>
<text transform="matrix(0.4695 -0.8829 0.8829 0.4695 225.8285 296.5461)"><tspan x="0" y="0" class="st0 st1">si</tspan><tspan x="5.78" y="0" class="st0 st1">g</tspan><tspan x="9.79" y="0" class="st0 st1">nature 6</tspan></text>
<text transform="matrix(0.4695 -0.8829 0.8829 0.4695 249.8297 296.5462)"><tspan x="0" y="0" class="st0 st1">si</tspan><tspan x="5.78" y="0" class="st0 st1">g</tspan><tspan x="9.79" y="0" class="st0 st1">nature 7</tspan></text>
<g>
	<g>
		<text transform="matrix(5.000000e-04 1 -1 5.000000e-04 493.8006 75.0419)" class="st0 st1">-Log(P) Overall Survival</text>
		<text transform="matrix(1 0 0 1 478.4031 79.7256)" class="st0 st1">3</text>
		<text transform="matrix(1 0 0 1 467.282 164.2405)" class="st0 st1">0.05</text>
		<rect x="484.54" y="160.51" class="st3" width="5.76" height="1.08"/>
		<rect x="484.54" y="159.43" class="st3" width="5.76" height="1.08"/>
		<rect x="484.54" y="158.35" class="st3" width="5.76" height="1.08"/>
		<rect x="484.54" y="157.27" class="st3" width="5.76" height="1.08"/>
		<rect x="484.54" y="156.19" class="st3" width="5.76" height="1.08"/>
		<rect x="484.54" y="155.11" class="st3" width="5.76" height="1.08"/>
		<rect x="484.54" y="154.03" class="st3" width="5.76" height="1.08"/>
		<rect x="484.54" y="152.95" class="st3" width="5.76" height="1.08"/>
		<rect x="484.54" y="151.87" class="st3" width="5.76" height="1.08"/>
		<rect x="484.54" y="150.79" class="st3" width="5.76" height="1.08"/>
		<rect x="484.54" y="149.71" class="st3" width="5.76" height="1.08"/>
		<rect x="484.54" y="148.63" class="st3" width="5.76" height="1.08"/>
		<rect x="484.54" y="147.55" class="st3" width="5.76" height="1.08"/>
		<rect x="484.54" y="146.47" class="st3" width="5.76" height="1.08"/>
		<rect x="484.54" y="145.39" class="st3" width="5.76" height="1.08"/>
		<rect x="484.54" y="144.31" class="st3" width="5.76" height="1.08"/>
		<rect x="484.54" y="143.23" class="st3" width="5.76" height="1.08"/>
		<rect x="484.54" y="142.15" class="st3" width="5.76" height="1.08"/>
		<rect x="484.54" y="141.07" class="st3" width="5.76" height="1.08"/>
		<rect x="484.54" y="139.99" class="st3" width="5.76" height="1.08"/>
		<rect x="484.54" y="138.91" class="st3" width="5.76" height="1.08"/>
		<rect x="484.54" y="137.83" class="st3" width="5.76" height="1.08"/>
		<rect x="484.54" y="136.75" class="st3" width="5.76" height="1.08"/>
		<rect x="484.54" y="135.67" class="st3" width="5.76" height="1.08"/>
		<rect x="484.54" y="134.59" class="st108" width="5.76" height="1.08"/>
		<rect x="484.54" y="133.51" class="st109" width="5.76" height="1.08"/>
		<rect x="484.54" y="132.43" class="st110" width="5.76" height="1.08"/>
		<rect x="484.54" y="131.35" class="st111" width="5.76" height="1.08"/>
		<rect x="484.54" y="130.27" class="st112" width="5.76" height="1.08"/>
		<rect x="484.54" y="129.19" class="st113" width="5.76" height="1.08"/>
		<rect x="484.54" y="128.11" class="st114" width="5.76" height="1.08"/>
		<rect x="484.54" y="127.03" class="st115" width="5.76" height="1.08"/>
		<rect x="484.54" y="125.95" class="st116" width="5.76" height="1.08"/>
		<rect x="484.54" y="124.87" class="st117" width="5.76" height="1.08"/>
		<rect x="484.54" y="123.79" class="st118" width="5.76" height="1.08"/>
		<rect x="484.54" y="122.71" class="st119" width="5.76" height="1.08"/>
		<rect x="484.54" y="121.63" class="st120" width="5.76" height="1.08"/>
		<rect x="484.54" y="120.55" class="st121" width="5.76" height="1.08"/>
		<rect x="484.54" y="119.47" class="st122" width="5.76" height="1.08"/>
		<rect x="484.54" y="118.39" class="st123" width="5.76" height="1.08"/>
		<rect x="484.54" y="117.31" class="st124" width="5.76" height="1.08"/>
		<rect x="484.54" y="116.23" class="st125" width="5.76" height="1.08"/>
		<rect x="484.54" y="115.15" class="st126" width="5.76" height="1.08"/>
		<rect x="484.54" y="114.07" class="st127" width="5.76" height="1.08"/>
		<rect x="484.54" y="112.99" class="st128" width="5.76" height="1.08"/>
		<rect x="484.54" y="111.91" class="st129" width="5.76" height="1.08"/>
		<rect x="484.54" y="110.83" class="st130" width="5.76" height="1.08"/>
		<rect x="484.54" y="109.75" class="st131" width="5.76" height="1.08"/>
		<rect x="484.54" y="108.67" class="st132" width="5.76" height="1.08"/>
		<rect x="484.54" y="107.59" class="st133" width="5.76" height="1.08"/>
		<rect x="484.54" y="106.51" class="st134" width="5.76" height="1.08"/>
		<rect x="484.54" y="105.43" class="st135" width="5.76" height="1.08"/>
		<rect x="484.54" y="104.35" class="st136" width="5.76" height="1.08"/>
		<rect x="484.54" y="103.27" class="st137" width="5.76" height="1.08"/>
		<rect x="484.54" y="102.19" class="st138" width="5.76" height="1.08"/>
		<rect x="484.54" y="101.11" class="st139" width="5.76" height="1.08"/>
		<rect x="484.54" y="100.03" class="st140" width="5.76" height="1.08"/>
		<rect x="484.54" y="98.95" class="st141" width="5.76" height="1.08"/>
		<rect x="484.54" y="97.87" class="st142" width="5.76" height="1.08"/>
		<rect x="484.54" y="96.79" class="st143" width="5.76" height="1.08"/>
		<rect x="484.54" y="95.71" class="st144" width="5.76" height="1.08"/>
		<rect x="484.54" y="94.63" class="st145" width="5.76" height="1.08"/>
		<rect x="484.54" y="93.55" class="st146" width="5.76" height="1.08"/>
		<rect x="484.54" y="92.47" class="st147" width="5.76" height="1.08"/>
		<rect x="484.54" y="91.39" class="st148" width="5.76" height="1.08"/>
		<rect x="484.54" y="90.31" class="st149" width="5.76" height="1.08"/>
		<rect x="484.54" y="89.23" class="st150" width="5.76" height="1.08"/>
		<rect x="484.54" y="88.15" class="st151" width="5.76" height="1.08"/>
		<rect x="484.54" y="87.07" class="st152" width="5.76" height="1.08"/>
		<rect x="484.54" y="85.99" class="st153" width="5.76" height="1.08"/>
		<rect x="484.54" y="84.91" class="st154" width="5.76" height="1.08"/>
		<rect x="484.54" y="83.83" class="st155" width="5.76" height="1.08"/>
		<rect x="484.54" y="82.75" class="st156" width="5.76" height="1.08"/>
		<rect x="484.54" y="81.67" class="st157" width="5.76" height="1.08"/>
		<rect x="484.54" y="80.59" class="st158" width="5.76" height="1.08"/>
		<rect x="484.54" y="79.51" class="st159" width="5.76" height="1.08"/>
		<rect x="484.54" y="78.43" class="st160" width="5.76" height="1.08"/>
		<rect x="484.54" y="77.35" class="st161" width="5.76" height="1.08"/>
		<rect x="484.54" y="76.27" class="st162" width="5.76" height="1.08"/>
		<rect x="484.54" y="75.19" class="st163" width="5.76" height="1.08"/>
		<text transform="matrix(1 0 0 1 471.7315 137.2867)" class="st0 st1">1.3</text>
		<rect x="484.54" y="75.19" class="st103" width="5.76" height="87.59"/>
	</g>
	<rect x="411.01" y="40.63" class="st145" width="24" height="24"/>
	<rect x="411.01" y="40.63" class="st104" width="24" height="24"/>
	<rect x="411.01" y="64.63" class="st3" width="24" height="24"/>
	<rect x="411.01" y="64.63" class="st104" width="24" height="24"/>
	<rect x="411.01" y="88.63" class="st3" width="24" height="24"/>
	<rect x="411.01" y="88.63" class="st104" width="24" height="24"/>
	<rect x="411.01" y="112.63" class="st128" width="24" height="24"/>
	<rect x="411.01" y="112.63" class="st104" width="24" height="24"/>
	<rect x="411.01" y="136.63" class="st147" width="24" height="24"/>
	<rect x="411.01" y="136.63" class="st104" width="24" height="24"/>
	<rect x="411.01" y="160.63" class="st3" width="24" height="24"/>
	<rect x="411.01" y="160.63" class="st104" width="24" height="24"/>
	<rect x="411.01" y="184.63" class="st112" width="24" height="24"/>
	<rect x="411.01" y="184.63" class="st104" width="24" height="24"/>
	<rect x="411.01" y="208.63" class="st3" width="24" height="24"/>
	<rect x="411.01" y="208.63" class="st104" width="24" height="24"/>
	<rect x="411.01" y="232.63" class="st3" width="24" height="24"/>
	<rect x="411.01" y="232.63" class="st104" width="24" height="24"/>
	<rect x="435.01" y="40.63" class="st108" width="24" height="24"/>
	<rect x="435.01" y="40.63" class="st104" width="24" height="24"/>
	<rect x="435.01" y="64.63" class="st3" width="24" height="24"/>
	<rect x="435.01" y="64.63" class="st104" width="24" height="24"/>
	<rect x="435.01" y="88.63" class="st3" width="24" height="24"/>
	<rect x="435.01" y="88.63" class="st104" width="24" height="24"/>
	<rect x="435.01" y="112.63" class="st3" width="24" height="24"/>
	<rect x="435.01" y="112.63" class="st104" width="24" height="24"/>
	<rect x="435.01" y="136.63" class="st3" width="24" height="24"/>
	<rect x="435.01" y="136.63" class="st104" width="24" height="24"/>
	<rect x="435.01" y="160.63" class="st135" width="24" height="24"/>
	<rect x="435.01" y="160.63" class="st104" width="24" height="24"/>
	<rect x="435.01" y="184.63" class="st3" width="24" height="24"/>
	<rect x="435.01" y="184.63" class="st104" width="24" height="24"/>
	<rect x="435.01" y="208.63" class="st105" width="24" height="24"/>
	<rect x="435.01" y="208.63" class="st104" width="24" height="24"/>
	<rect x="435.01" y="232.63" class="st105" width="24" height="24"/>
	<rect x="435.01" y="232.63" class="st104" width="24" height="24"/>
	<text transform="matrix(1 0 0 1 415.2217 55.4986)" class="st106 st107 st1">2.46</text>
	<text transform="matrix(1 0 0 1 415.2217 79.4986)" class="st106 st107 st1">0.42</text>
	<text transform="matrix(1 0 0 1 415.2217 103.4986)" class="st106 st107 st1">0.38</text>
	<text transform="matrix(1 0 0 1 415.2217 127.4986)" class="st106 st107 st1">1.92</text>
	<text transform="matrix(1 0 0 1 415.2217 151.4986)" class="st106 st107 st1">2.49</text>
	<text transform="matrix(1 0 0 1 415.2217 175.4995)" class="st106 st107 st1">0.57</text>
	<text transform="matrix(1 0 0 1 415.2217 199.4995)" class="st106 st107 st1">1.47</text>
	<text transform="matrix(1 0 0 1 415.2217 223.4995)" class="st106 st107 st1">0.46</text>
	<text transform="matrix(1 0 0 1 415.2217 247.4995)" class="st106 st107 st1">0.47</text>
	<text transform="matrix(1 0 0 1 439.2217 55.4986)" class="st106 st107 st1">1.34</text>
	<text transform="matrix(1 0 0 1 439.2217 79.4986)" class="st106 st107 st1">0.34</text>
	<text transform="matrix(1 0 0 1 439.2217 103.4986)" class="st106 st107 st1">0.07</text>
	<text transform="matrix(1 0 0 1 439.2217 127.4986)" class="st106 st107 st1">1.10</text>
	<text transform="matrix(1 0 0 1 439.2217 151.4986)" class="st106 st107 st1">0.05</text>
	<text transform="matrix(1 0 0 1 439.2217 175.4995)" class="st106 st107 st1">2.15</text>
	<text transform="matrix(1 0 0 1 439.2217 199.4995)" class="st106 st107 st1">0.52</text>
	<text transform="matrix(1 0 0 1 441.4454 223.4995)" class="st106 st107 st1">NA</text>
	<text transform="matrix(1 0 0 1 441.4454 247.4995)" class="st106 st107 st1">NA</text>
</g>
<text transform="matrix(1 0 0 1 381.252 193.5577)"><tspan x="0" y="0" class="st0 st1">MOFA+</tspan><tspan x="-1.57" y="9.6" class="st0 st1">KMeans</tspan></text>
<text transform="matrix(1 0 0 1 379.6856 225.079)" class="st0 st1">KMeans</text>
<text transform="matrix(1 0 0 1 328.5604 247.2471)" class="st0 st1">Hierarchical Clustering</text>
<text transform="matrix(1 0 0 1 359.539 56.0448)"><tspan x="0" y="0" class="st0 st1">P</tspan><tspan x="4.9" y="0" class="st0 st1">atient</tspan><tspan x="24.47" y="0" class="st0 st1">P</tspan><tspan x="29.38" y="0" class="st0 st1">rofiler</tspan></text>
<text transform="matrix(1 0 0 1 381.2521 170.3739)"><tspan x="0" y="0" class="st0 st1">MOFA+</tspan><tspan x="-52.69" y="9.6" class="st0 st1">Hierarchical Clustering</tspan></text>
<text transform="matrix(1 0 0 1 385.6893 73.5025)"><tspan x="0" y="0" class="st0 st1">tSNE+</tspan><tspan x="-6" y="9.6" class="st0 st1">KMeans</tspan></text>
<text transform="matrix(1 0 0 1 385.6893 98.7236)"><tspan x="0" y="0" class="st0 st1">tSNE+</tspan><tspan x="-57.13" y="9.6" class="st0 st1">Hierarchical Clustering</tspan></text>
<text transform="matrix(1 0 0 1 389.5121 123.1526)"><tspan x="0" y="0" class="st0 st1">PCA+</tspan><tspan x="-7.36" y="9.6" class="st0 st1">KMeans</tspan></text>
<text transform="matrix(1 0 0 1 389.64 146.8167)"><tspan x="0" y="0" class="st0 st1">PCA+</tspan><tspan x="-51.14" y="9.6" class="st0 st1">Hierarchical Clustering</tspan></text>
<text transform="matrix(1 0 0 1 85.5353 123.1524)"><tspan x="0" y="0" class="st0 st1">PCA+</tspan><tspan x="-7.36" y="9.6" class="st0 st1">KMeans</tspan></text>
</svg>
