<?xml version="1.0" encoding="UTF-8"?>
<!-- Generator: Adobe Illustrator 24.0.3, SVG Export Plug-In . SVG Version: 6.00 Build 0)  -->
<svg enable-background="new 0 0 841.89 595.28" version="1.1" viewBox="0 0 841.89 595.28" xml:space="preserve" xmlns="http://www.w3.org/2000/svg">
<style type="text/css">
	.st0{opacity:0.6;fill:none;stroke:#991915;stroke-width:0.5;stroke-miterlimit:1.9363;}
	.st1{fill:#991915;}
	.st2{fill:#020203;}
	.st3{opacity:0.6;fill:none;stroke:#253777;stroke-width:0.5;stroke-miterlimit:1.9363;}
	.st4{fill:#253777;}
	.st5{opacity:0.6;fill:#D7614E;}
	.st6{font-family:'MyriadPro-Regular';}
	.st7{font-size:4px;}
	.st8{opacity:0.6;fill:#4593C3;}
	.st9{font-size:12px;}
	.st10{opacity:0.6;fill:none;stroke:#253777;stroke-width:0.25;stroke-miterlimit:1.0622;}
	.st11{opacity:0.6;fill:none;stroke:#991915;stroke-width:0.25;stroke-miterlimit:1.0622;}
	.st12{font-family:'Helvetica';}
	.st13{font-size:3.1866px;}
</style>
<path class="st0" d="m368.87 212.9v20.14"/>
<path class="st1" d="m369.06 212.9c0-0.11-0.09-0.19-0.19-0.19s-0.19 0.09-0.19 0.19z"/>
<path class="st2" d="m369.64 233.04c-0.52 1.03-0.77 2.07-0.77 3.1 0-1.03-0.26-2.07-0.77-3.1z"/>
<path class="st0" d="m706.14 78.33v8.52"/>
<path class="st1" d="m706.33 78.33c0-0.11-0.09-0.19-0.19-0.19s-0.19 0.09-0.19 0.19z"/>
<path class="st2" d="m706.91 86.85c-0.52 1.03-0.77 2.07-0.77 3.1 0-1.03-0.26-2.07-0.77-3.1z"/>
<path class="st0" d="m752.61 209.51h-6.53-4.6c-1.07 0-1.94 0.87-1.94 1.94v11.38 10.21"/>
<path class="st1" d="m752.61 209.71c0.11 0 0.19-0.09 0.19-0.19 0-0.11-0.09-0.19-0.19-0.19z"/>
<path class="st2" d="m740.31 233.04c-0.52 1.03-0.77 2.07-0.77 3.1 0-1.03-0.26-2.07-0.77-3.1z"/>
<path class="st0" d="m758.2 185.7v17.41"/>
<path class="st1" d="m758.39 185.7c0-0.11-0.09-0.19-0.19-0.19s-0.2 0.09-0.2 0.19z"/>
<path class="st2" d="m758.97 203.12c-0.52 1.03-0.77 2.07-0.77 3.1 0-1.03-0.26-2.07-0.77-3.1z"/>
<path class="st0" d="m798.17 185.36v2.56c0 1.41-0.87 2.56-1.94 2.56h-16.38-16.38c-1.07 0-1.94 0.87-1.94 1.94v5.93 4.77"/>
<path class="st1" d="m798.37 185.36c0-0.11-0.09-0.19-0.19-0.19s-0.19 0.09-0.19 0.19z"/>
<path class="st2" d="m762.31 203.12c-0.52 1.03-0.77 2.07-0.77 3.1 0-1.03-0.26-2.07-0.77-3.1z"/>
<path class="st0" d="m764.88 207.06c0-3.42 0.87-6.2 1.94-6.2h17.83 17.83c1.07 0 1.94 0.87 1.94 1.94v17.51 16.35"/>
<path class="st1" d="m764.68 207.06c0 0.11 0.09 0.19 0.19 0.19s0.19-0.09 0.19-0.19z"/>
<path class="st2" d="m805.18 236.65c-0.52 1.03-0.77 2.07-0.77 3.1 0-1.03-0.26-2.07-0.77-3.1z"/>
<path class="st0" d="m759.87 212.9v20.14"/>
<path class="st1" d="m760.06 212.9c0-0.11-0.09-0.19-0.19-0.19s-0.19 0.09-0.19 0.19z"/>
<path class="st2" d="m760.64 233.04c-0.52 1.03-0.77 2.07-0.77 3.1 0-1.03-0.26-2.07-0.77-3.1z"/>
<path class="st0" d="m524.61 185.79v7.83 5.89c0 1.07 0.87 1.94 1.94 1.94h113.19 113.19c1.07 0 1.94-0.58 1.94 2.52"/>
<path class="st1" d="m524.81 185.79c0-0.11-0.09-0.19-0.19-0.19s-0.19 0.09-0.19 0.19z"/>
<path class="st2" d="m755.63 203.96c-0.52 1.03-0.77 2.07-0.77 3.1 0-1.03-0.26-2.07-0.77-3.1z"/>
<path class="st3" d="m620.89 185.41c0 2.79 0.87 5.06 1.94 5.06h6.56 6.56c1.07 0 1.94 0.87 1.94 1.94v5.89 6.28"/>
<path class="st4" d="m621.09 185.41c0-0.11-0.09-0.19-0.19-0.19s-0.19 0.09-0.19 0.19z"/>
<path class="st2" d="m639.43 204.58v0.31h-3.1v-0.31z"/>
<path class="st0" d="m783.83 78.33v8.52"/>
<path class="st1" d="m784.02 78.33c0-0.11-0.09-0.19-0.19-0.19s-0.19 0.09-0.19 0.19z"/>
<path class="st2" d="m784.6 86.85c-0.52 1.03-0.77 2.07-0.77 3.1 0-1.03-0.26-2.07-0.77-3.1z"/>
<path class="st3" d="m783.83 96.73v47.83"/>
<path class="st4" d="m784.02 96.73c0-0.11-0.09-0.19-0.19-0.19s-0.19 0.09-0.19 0.19z"/>
<path class="st2" d="m785.38 144.55v0.31h-3.1v-0.31z"/>
<path class="st0" d="m472.33 185.79v11.16 9.22c0 1.07-0.87 1.94-1.94 1.94h-7.17-6"/>
<path class="st1" d="m472.53 185.79c0-0.11-0.09-0.19-0.19-0.19s-0.19 0.09-0.19 0.19z"/>
<path class="st2" d="m457.23 208.88c-1.03-0.52-2.07-0.77-3.1-0.77 1.03 0 2.07-0.26 3.1-0.77z"/>
<path class="st0" d="m454.42 212.9v20.14"/>
<path class="st1" d="m454.62 212.9c0-0.11-0.09-0.19-0.19-0.19s-0.19 0.09-0.19 0.19z"/>
<path class="st2" d="m455.2 233.04c-0.52 1.03-0.77 2.07-0.77 3.1 0-1.03-0.26-2.07-0.77-3.1z"/>
<path class="st0" d="m617.55 152.88v23.04"/>
<path class="st1" d="m617.75 152.88c0-0.11-0.09-0.19-0.19-0.19s-0.19 0.09-0.19 0.19z"/>
<path class="st2" d="m618.33 175.92c-0.52 1.03-0.77 2.07-0.77 3.1 0-1.03-0.26-2.07-0.77-3.1z"/>
<path class="st0" d="m420.64 91.73h1.94 35.53 35.53c1.07 0 1.94 0.87 1.94 1.94v25.25 24.09"/>
<path class="st1" d="m420.64 91.93c0.11 0 0.19-0.09 0.19-0.19s-0.09-0.19-0.19-0.19z"/>
<path class="st2" d="m496.34 143c-0.52 1.03-0.77 2.07-0.77 3.1 0-1.03-0.26-2.07-0.77-3.1z"/>
<path class="st3" d="m207.33 96.66v18.06 16.13c0 1.07-0.87 1.94-1.94 1.94h-9.33-9.33c-1.07 0-1.94 0.87-1.94 1.94v4.72 5.11"/>
<path class="st4" d="m207.52 96.66c0-0.11-0.09-0.19-0.19-0.19-0.11 0-0.19 0.09-0.19 0.19z"/>
<path class="st2" d="m186.35 144.55v0.31h-3.1v-0.31z"/>
<path class="st0" d="m414.68 185.41v20.73"/>
<path class="st1" d="m414.88 185.41c0-0.11-0.09-0.19-0.19-0.19s-0.19 0.09-0.19 0.19z"/>
<path class="st2" d="m415.46 206.14c-0.52 1.03-0.77 2.07-0.77 3.1 0-1.03-0.26-2.07-0.77-3.1z"/>
<path class="st0" d="m428.17 185.37v12.07 10.13c0 1.07 0.87 1.94 1.94 1.94h8.17 8.17-1.16"/>
<path class="st1" d="m428.36 185.37c0-0.11-0.09-0.19-0.19-0.19s-0.19 0.09-0.19 0.19z"/>
<path class="st2" d="m445.27 208.74c1.03 0.52 2.07 0.77 3.1 0.77-1.03 0-2.07 0.26-3.1 0.77z"/>
<path class="st0" d="m804.16 96.73v46.27"/>
<path class="st1" d="m804.35 96.73c0-0.11-0.09-0.19-0.19-0.19s-0.19 0.09-0.19 0.19z"/>
<path class="st2" d="m804.93 143c-0.52 1.03-0.77 2.07-0.77 3.1 0-1.03-0.26-2.07-0.77-3.1z"/>
<path class="st3" d="m419.36 90.93h1.94 45.81 45.81c1.07 0 1.94 0.87 1.94 1.94v25.65 25.65c0 1.07-1.35-2.47-0.44 0.49"/>
<path class="st4" d="m419.36 91.13c0.11 0 0.19-0.09 0.19-0.19s-0.09-0.19-0.19-0.19z"/>
<path class="st2" d="m515.9 144.2 0.09 0.3-2.96 0.91-0.09-0.3z"/>
<path class="st0" d="m407.14 92.64h-26.94-25.01c-1.07 0-1.94 0.87-1.94 1.94v24.8 23.63"/>
<path class="st1" d="m407.14 92.83c0.11 0 0.19-0.09 0.19-0.19s-0.09-0.19-0.19-0.19z"/>
<path class="st2" d="m354.03 143c-0.52 1.03-0.77 2.07-0.77 3.1 0-1.03-0.26-2.07-0.77-3.1z"/>
<path class="st0" d="m358.57 151.8c-0.15-0.07-0.28 0.75-0.28 1.81v16.91 16.91c0 1.07-0.87 1.94-1.94 1.94h-4.32-4.32c-1.07 0-1.94 0.87-1.94 1.94v6.44 5.28"/>
<path class="st1" d="m358.49 151.98c0.1 0.04 0.21 0 0.25-0.1s0-0.21-0.1-0.25z"/>
<path class="st2" d="m346.55 203.03c-0.52 1.03-0.77 2.07-0.77 3.1 0-1.03-0.26-2.07-0.77-3.1z"/>
<path class="st3" d="m744.98 96.62v49.63"/>
<path class="st4" d="m745.18 96.62c0-0.11-0.09-0.19-0.19-0.19s-0.19 0.09-0.19 0.19z"/>
<path class="st2" d="m746.53 146.25v0.31h-3.1v-0.31z"/>
<path class="st3" d="m186.62 78.22v10.18"/>
<path class="st4" d="m186.81 78.22c0-0.11-0.09-0.19-0.19-0.19-0.11 0-0.19 0.09-0.19 0.19z"/>
<path class="st2" d="m188.16 88.4v0.31h-3.1v-0.31z"/>
<path class="st0" d="m420.18 91.39v-1.69c0-0.93 0.87-1.69 1.94-1.69h57.9 57.9c1.07 0 1.94 0.87 1.94 1.94v27.38 27.38c0 1.07-4.67 5.6-2.24 3.69"/>
<path class="st1" d="m420.18 91.58c0.11 0 0.19-0.09 0.19-0.19 0-0.11-0.09-0.19-0.19-0.19z"/>
<path class="st2" d="m537.15 147.79c1.13-0.23 2.1-0.66 2.92-1.3-0.81 0.64-1.47 1.48-1.96 2.52z"/>
<path class="st3" d="m210.21 212.9c0 13.51 3.99 26.16 1.14 24.94"/>
<path class="st4" d="m210.41 212.9c0-0.11-0.09-0.19-0.19-0.19-0.11 0-0.19 0.09-0.19 0.19z"/>
<path class="st2" d="m210.75 239.27-0.28-0.12 1.22-2.85 0.28 0.12z"/>
<path class="st0" d="m409.79 90.66v-1.94-9.46-9.46c0-1.07-0.87-1.94-1.94-1.94h-74.66-74.66c-1.07 0-1.94 0.87-1.94 1.94v69.58 69.58c0 1.07-0.87 1.94-1.94 1.94h-21.23-20.07"/>
<path class="st1" d="m409.79 90.86c0.11 0 0.19-0.09 0.19-0.19s-0.09-0.19-0.19-0.19z"/>
<path class="st2" d="m213.36 211.69c-1.03-0.52-2.07-0.77-3.1-0.77 1.03 0 2.07-0.26 3.1-0.77z"/>
<path class="st0" d="m107.11 71.56c0-1.71 0.87-3.1 1.94-3.1h72 72c1.06 0 1.94 0.87 1.94 1.94v67.89 67.89c0 1.07-0.87 1.94-1.94 1.94h-21.93-21.93c-1.07 0-1.94 6.2-1.94 3.1"/>
<path class="st1" d="m106.91 71.56c0 0.11 0.09 0.19 0.19 0.19 0.11 0 0.19-0.09 0.19-0.19z"/>
<path class="st2" d="m206.48 211.21c0.52-1.03 0.77-2.07 0.77-3.1 0 1.03 0.26 2.07 0.77 3.1z"/>
<path class="st0" d="m198.45 185.79v23.47"/>
<path class="st1" d="m198.64 185.79c0-0.11-0.09-0.19-0.19-0.19-0.11 0-0.19 0.09-0.19 0.19z"/>
<path class="st2" d="m199.23 209.26c-0.52 1.03-0.77 2.07-0.77 3.1 0-1.03-0.26-2.07-0.77-3.1z"/>
<path class="st0" d="m336.86 152.34v1.94 15.76 15.76c0 1.07-0.87 1.94-1.94 1.94h-66.2-66.2c-1.07 0-1.94 4.26-1.94 1.16"/>
<path class="st1" d="m337.05 152.34c0-0.11-0.09-0.19-0.19-0.19s-0.19 0.09-0.19 0.19z"/>
<path class="st2" d="m199.81 188.89c0.52-1.03 0.77-2.07 0.77-3.1 0 1.03 0.26 2.07 0.77 3.1z"/>
<path class="st0" d="m67.46 152.09v8.32 6.38c0 1.07 0.87 1.94 1.94 1.94h59.43 59.43c1.07 0 1.94 0.87 1.94 1.94v5.43 4.27"/>
<path class="st1" d="m67.66 152.09c0-0.11-0.09-0.19-0.19-0.19-0.11 0-0.19 0.09-0.19 0.19z"/>
<path class="st2" d="m190.97 180.37c-0.52 1.03-0.77 2.07-0.77 3.1 0-1.03-0.26-2.07-0.77-3.1z"/>
<path class="st0" d="m168.92 152.17v5.5 3.56c0 1.07 0.87 1.94 1.94 1.94h10.61 10.61c1.07 0 1.94 0.87 1.94 1.94v6.43 5.27"/>
<path class="st1" d="m169.12 152.17c0-0.11-0.09-0.19-0.19-0.19-0.11 0-0.19 0.09-0.19 0.19z"/>
<path class="st2" d="m194.8 176.8c-0.52 1.03-0.77 2.07-0.77 3.1 0-1.03-0.26-2.07-0.77-3.1z"/>
<path class="st0" d="m192.84 181h-4.26-2.33c-1.07 0-1.94 0.87-1.94 1.94v11.38 11.38c0 1.07-0.87 1.94-1.94 1.94h-47.84-46.67"/>
<path class="st1" d="m192.84 181.2c0.11 0 0.19-0.09 0.19-0.19 0-0.11-0.09-0.19-0.19-0.19z"/>
<path class="st2" d="m87.87 208.42c-1.03-0.52-2.07-0.77-3.1-0.77 1.03 0 2.07-0.26 3.1-0.77z"/>
<path class="st3" d="m191.67 185.79v48.79"/>
<path class="st4" d="m191.87 185.79c0-0.11-0.09-0.19-0.19-0.19-0.11 0-0.19 0.09-0.19 0.19z"/>
<path class="st2" d="m193.22 234.59v0.31h-3.1v-0.31z"/>
<path class="st0" d="m195.93 185.79v14.52 12.59c0 1.07 0.87 1.94 1.94 1.94h72.15 72.15c1.07 0 1.94 4.26 1.94 1.16"/>
<path class="st1" d="m196.13 185.79c0-0.11-0.09-0.19-0.19-0.19-0.11 0-0.19 0.09-0.19 0.19z"/>
<path class="st2" d="m343.33 216c0.52-1.03 0.77-2.07 0.77-3.1 0 1.03 0.26 2.07 0.77 3.1z"/>
<path class="st3" d="m189.83 183.81h-2.27c-1.26 0-2.27 0.87-2.27 1.94v25.92 25.92c0 1.07 1.26 1.94-1.84 1.94"/>
<path class="st4" d="m189.9 183.99c0.1-0.04 0.15-0.15 0.11-0.25s-0.15-0.15-0.25-0.11z"/>
<path class="st2" d="m183.44 241.07h-0.31v-3.1h0.31z"/>
<path class="st0" d="m299.52 147.62h-1.94-19.85-19.85c-1.07 0-1.94 0.87-1.94 1.94v15.46 15.46c0 1.07-0.87 1.94-1.94 1.94h-26.74-25.58"/>
<path class="st1" d="m299.56 147.43c-0.11-0.02-0.21 0.05-0.23 0.15s0.05 0.21 0.15 0.23z"/>
<path class="st2" d="m201.69 183.18c-1.03-0.52-2.07-0.77-3.1-0.77 1.03 0 2.07-0.26 3.1-0.77z"/>
<path class="st3" d="m208.76 89.95v-12.49-10.55c0-1.07 0.87-1.94 1.94-1.94h262.21 262.21c1.07 0 1.94 0.87 1.94 1.94v41.49 41.87"/>
<path class="st4" d="m208.57 89.95c0 0.11 0.09 0.19 0.19 0.19 0.11 0 0.19-0.09 0.19-0.19z"/>
<path class="st2" d="m738.59 150.27v0.31h-3.1v-0.31z"/>
<path class="st0" d="m797.87 212.67v22.86"/>
<path class="st1" d="m798.06 212.67c0-0.11-0.09-0.19-0.19-0.19s-0.19 0.09-0.19 0.19z"/>
<path class="st2" d="m798.64 235.52c-0.52 1.03-0.77 2.07-0.77 3.1 0-1.03-0.26-2.07-0.77-3.1z"/>
<path class="st0" d="m806.27 185.05v53.35"/>
<path class="st1" d="m806.47 185.05c0-0.11-0.09-0.19-0.19-0.19s-0.19 0.09-0.19 0.19z"/>
<path class="st2" d="m807.05 238.4c-0.52 1.03-0.77 2.07-0.77 3.1 0-1.03-0.26-2.07-0.77-3.1z"/>
<path class="st3" d="m800.53 242.91v4.26"/>
<path class="st4" d="m800.72 242.91c0-0.11-0.09-0.19-0.19-0.19s-0.19 0.09-0.19 0.19z"/>
<path class="st2" d="m802.08 247.17v0.31h-3.1v-0.31z"/>
<path class="st0" d="m421.51 93.34h31.46 29.53c1.07 0 1.94 0.87 1.94 1.94v56.85 56.85c0 1.07-0.87 1.94-1.94 1.94h-11.71-11.71-5.03"/>
<path class="st1" d="m421.51 93.14c-0.11 0-0.19 0.09-0.19 0.19 0 0.11 0.09 0.19 0.19 0.19z"/>
<path class="st2" d="m454.04 210.14c1.03 0.52 2.07 0.77 3.1 0.77-1.03 0-2.07 0.26-3.1 0.77z"/>
<path class="st0" d="m446.37 211.39h-1.94-3.99-3.99c-1.07 0-1.94 0.87-1.94 1.94v10.44 9.28"/>
<path class="st1" d="m446.37 211.58c0.11 0 0.19-0.09 0.19-0.19s-0.09-0.19-0.19-0.19z"/>
<path class="st2" d="m435.29 233.04c-0.52 1.03-0.77 2.07-0.77 3.1 0-1.03-0.26-2.07-0.77-3.1z"/>
<path class="st3" d="m446.68 212.9v28.56 26.62c0 1.07-0.87 1.94-1.94 1.94h-113.75-113.75c-1.07 0-1.94-0.87-1.94-1.94v-11.62-12"/>
<path class="st4" d="m446.87 212.9c0-0.11-0.09-0.19-0.19-0.19s-0.19 0.09-0.19 0.19z"/>
<path class="st2" d="m213.75 244.46v-0.31h3.1v0.31z"/>
<path class="st0" d="m391.01 179.02c0-1.07 0.87-1.94 1.94-1.94h22.99 22.99c1.07 0 1.94 0.87 1.94 1.94v13.34 13.34c0 1.07 0.87 1.94 1.94 1.94h2.82 2.82-1.16"/>
<path class="st1" d="m390.82 179.02c0 0.11 0.09 0.19 0.19 0.19s0.19-0.09 0.19-0.19z"/>
<path class="st2" d="m447.28 206.87c1.03 0.52 2.07 0.77 3.1 0.77-1.03 0-2.07 0.26-3.1 0.77z"/>
<path class="st0" d="m452 185.79v17.23"/>
<path class="st1" d="m452.2 185.79c0-0.11-0.09-0.19-0.19-0.19s-0.19 0.09-0.19 0.19z"/>
<path class="st2" d="m452.78 203.03c-0.52 1.03-0.77 2.07-0.77 3.1 0-1.03-0.26-2.07-0.77-3.1z"/>
<path class="st0" d="m726.47 78.33v8.52"/>
<path class="st1" d="m726.66 78.33c0-0.11-0.09-0.19-0.19-0.19s-0.19 0.09-0.19 0.19z"/>
<path class="st2" d="m727.24 86.85c-0.52 1.03-0.77 2.07-0.77 3.1 0-1.03-0.26-2.07-0.77-3.1z"/>
<path class="st0" d="m392.68 185.7v18.88"/>
<path class="st1" d="m392.87 185.7c0-0.11-0.09-0.19-0.19-0.19s-0.19 0.09-0.19 0.19z"/>
<path class="st2" d="m393.46 204.59c-0.52 1.03-0.77 2.07-0.77 3.1 0-1.03-0.26-2.07-0.77-3.1z"/>
<path class="st0" d="m389.34 185.7v6.77 4.84c0 1.07-0.87 1.94-1.94 1.94h-16.51-16.51c-1.07 0-1.94 0.68-1.94 3.78"/>
<path class="st1" d="m389.53 185.7c0-0.11-0.09-0.19-0.19-0.19s-0.19 0.09-0.19 0.19z"/>
<path class="st2" d="m353.23 203.03c-0.52 1.03-0.77 2.07-0.77 3.1 0-1.03-0.26-2.07-0.77-3.1z"/>
<path class="st3" d="m386 184.86v5.55 3.61c0 1.07-0.87 1.94-1.94 1.94h-94.1-94.1c-1.07 0-1.94 0.87-1.94 1.94v18.15 18.54"/>
<path class="st4" d="m386.19 184.86c0-0.11-0.09-0.19-0.19-0.19s-0.19 0.09-0.19 0.19z"/>
<path class="st2" d="m195.48 234.59v0.31h-3.1v-0.31z"/>
<path class="st0" d="m396.02 184.86s-0.08 0.92-0.17 2.06-0.09 4.23 0 6.91c0.09 2.67 0.17 5.71 0.17 6.78s0.87 1.94 1.94 1.94h4.05 4.05c1.07 0 1.94 0.5 1.94 3.6"/>
<path class="st1" d="m396.02 185.05c0.11 0 0.19-0.09 0.19-0.19s-0.09-0.19-0.19-0.19z"/>
<path class="st2" d="m408.78 206.14c-0.52 1.03-0.77 2.07-0.77 3.1 0-1.03-0.26-2.07-0.77-3.1z"/>
<path class="st0" d="m376.8 212.9v13.31 11.38c0 1.07 0.87 1.94 1.94 1.94h24.29 23.13"/>
<path class="st1" d="m377 212.9c0-0.11-0.09-0.19-0.19-0.19s-0.19 0.09-0.19 0.19z"/>
<path class="st2" d="m426.15 238.75c1.03 0.52 2.07 0.77 3.1 0.77-1.03 0-2.07 0.26-3.1 0.77z"/>
<path class="st3" d="m436.51 255.5v4.26"/>
<path class="st4" d="m436.71 255.5c0-0.11-0.09-0.19-0.19-0.19s-0.19 0.09-0.19 0.19z"/>
<path class="st2" d="m438.06 259.76v0.31h-3.1v-0.31z"/>
<path class="st0" d="m787.94 209.51h-4.09-2.15c-1.07 0-1.94 0.87-1.94 1.94v11.38 11.38c0 1.07-0.79-4.2-0.39-1.13"/>
<path class="st1" d="m787.94 209.71c0.11 0 0.19-0.09 0.19-0.19 0-0.11-0.09-0.19-0.19-0.19z"/>
<path class="st2" d="m780.14 232.97c-0.38 1.09-0.51 2.15-0.37 3.17-0.13-1.02-0.52-2.02-1.16-2.97z"/>
<path class="st0" d="m83.15 185.79v17.23"/>
<path class="st1" d="m83.34 185.79c0-0.11-0.09-0.19-0.19-0.19s-0.19 0.09-0.19 0.19z"/>
<path class="st2" d="m83.92 203.03c-0.52 1.03-0.77 2.07-0.77 3.1 0-1.03-0.26-2.07-0.77-3.1z"/>
<path class="st3" d="m534.78 77.36v15.78"/>
<path class="st4" d="m534.97 77.36c0-0.11-0.09-0.19-0.19-0.19s-0.19 0.09-0.19 0.19z"/>
<path class="st2" d="m536.33 93.14v0.31h-3.1v-0.31z"/>
<path class="st0" d="m178.19 73.54h-23.71-21.77c-1.07 0-1.94 0.87-1.94 1.94v7.83 6.67"/>
<path class="st1" d="m178.19 73.73c0.11 0 0.19-0.09 0.19-0.19s-0.09-0.19-0.19-0.19z"/>
<path class="st2" d="m131.55 89.97c-0.52 1.03-0.77 2.07-0.77 3.1 0-1.03-0.26-2.07-0.77-3.1z"/>
<path class="st0" d="m306.18 152.87v23.62"/>
<path class="st1" d="m306.37 152.83c-0.02-0.11-0.12-0.18-0.22-0.16-0.11 0.02-0.18 0.12-0.16 0.22z"/>
<path class="st2" d="m306.95 176.48c-0.52 1.03-0.77 2.07-0.77 3.1 0-1.03-0.26-2.07-0.77-3.1z"/>
<path class="st0" d="m414.25 96.73v46.27"/>
<path class="st1" d="m414.44 96.73c0-0.11-0.09-0.19-0.19-0.19s-0.19 0.09-0.19 0.19z"/>
<path class="st2" d="m415.02 143c-0.52 1.03-0.77 2.07-0.77 3.1 0-1.03-0.26-2.07-0.77-3.1z"/>
<path class="st0" d="m62.82 78.33v8.52"/>
<path class="st1" d="m63.01 78.33c0-0.11-0.09-0.19-0.19-0.19-0.11 0-0.19 0.09-0.19 0.19z"/>
<path class="st2" d="m63.59 86.85c-0.52 1.03-0.77 2.07-0.77 3.1 0-1.03-0.26-2.07-0.77-3.1z"/>
<path class="st0" d="m62.82 96.73v46.27"/>
<path class="st1" d="m63.01 96.73c0-0.11-0.09-0.19-0.19-0.19-0.11 0-0.19 0.09-0.19 0.19z"/>
<path class="st2" d="m63.59 143c-0.52 1.03-0.77 2.07-0.77 3.1 0-1.03-0.26-2.07-0.77-3.1z"/>
<path class="st0" d="m436.51 242.91v2.71"/>
<path class="st1" d="m436.71 242.91c0-0.11-0.09-0.19-0.19-0.19s-0.19 0.09-0.19 0.19z"/>
<path class="st2" d="m437.29 245.62c-0.52 1.03-0.77 2.07-0.77 3.1 0-1.03-0.26-2.07-0.77-3.1z"/>
<path class="st0" d="m419.36 95.74h1.94 5.67 5.67c1.07 0 1.94 0.87 1.94 1.94v23.24 23.24-1.16"/>
<path class="st1" d="m419.36 95.94c0.11 0 0.19-0.09 0.19-0.19s-0.09-0.19-0.19-0.19z"/>
<path class="st2" d="m435.35 143c-0.52 1.03-0.77 2.07-0.77 3.1 0-1.03-0.26-2.07-0.77-3.1z"/>
<path class="st3" d="m113.23 95.16v27.17 25.23c0 1.07 2.3 1.94 5.4 1.94"/>
<path class="st4" d="m113.42 95.16c0-0.11-0.09-0.19-0.19-0.19s-0.19 0.09-0.19 0.19z"/>
<path class="st2" d="m118.63 147.94h0.31v3.1h-0.31z"/>
<path class="st0" d="m107.11 78.33v8.52"/>
<path class="st1" d="m107.3 78.33c0-0.11-0.09-0.19-0.19-0.19-0.11 0-0.19 0.09-0.19 0.19z"/>
<path class="st2" d="m107.88 86.85c-0.52 1.03-0.77 2.07-0.77 3.1 0-1.03-0.26-2.07-0.77-3.1z"/>
<path class="st3" d="m84.96 96.62v47.93"/>
<path class="st4" d="m85.16 96.62c0-0.11-0.09-0.19-0.19-0.19s-0.19 0.09-0.19 0.19z"/>
<path class="st2" d="m86.51 144.55v0.31h-3.1v-0.31z"/>
<path class="st0" d="m164.47 152.88v46.28 44.34c0 1.07 0.87 1.94 1.94 1.94h91.22 91.22c1.07 0 1.94-0.87 1.94-1.94v-14.33-13.17"/>
<path class="st1" d="m164.66 152.88c0-0.11-0.09-0.19-0.19-0.19-0.11 0-0.19 0.09-0.19 0.19z"/>
<path class="st2" d="m350.01 216c0.52-1.03 0.77-2.07 0.77-3.1 0 1.03 0.26 2.07 0.77 3.1z"/>
<path class="st0" d="m337.96 151.93v28.79 26.85c0 1.07-3.97 1.94-0.87 1.94"/>
<path class="st1" d="m338.15 151.93c0-0.11-0.09-0.19-0.19-0.19s-0.19 0.09-0.19 0.19z"/>
<path class="st2" d="m337.09 208.74c1.03 0.52 2.07 0.77 3.1 0.77-1.03 0-2.07 0.26-3.1 0.77z"/>
<path class="st0" d="m370.78 152.34c-0.29 0.3-0.53 1.41-0.53 2.48v17.96 17.96c0 1.07-0.87 1.94-1.94 1.94h-8.63-8.63c-1.07 0-1.94 0.87-1.94 1.94v4.79c0 1.58-0.07 3.69-0.16 4.72s1.99-3.78 0.88-0.89"/>
<path class="st1" d="m370.92 152.47c0.08-0.08 0.07-0.2 0-0.27-0.08-0.08-0.2-0.07-0.27 0z"/>
<path class="st2" d="m350.56 203.5c-0.85 0.78-1.46 1.65-1.83 2.62 0.37-0.97 0.49-2.02 0.38-3.17z"/>
<path class="st0" d="m342.44 184.86v18.17"/>
<path class="st1" d="m342.63 184.86c0-0.11-0.09-0.19-0.19-0.19s-0.19 0.09-0.19 0.19z"/>
<path class="st2" d="m343.21 203.03c-0.52 1.03-0.77 2.07-0.77 3.1 0-1.03-0.26-2.07-0.77-3.1z"/>
<path class="st3" d="m86.78 89.95c0-1.07 0.87-1.94 1.94-1.94h13.38 13.38c1.07 0 1.94 0.87 1.94 1.94v30.1 30.48"/>
<path class="st4" d="m86.58 89.95c0 0.11 0.09 0.19 0.19 0.19s0.19-0.09 0.19-0.19z"/>
<path class="st2" d="m118.96 150.53v0.31h-3.1v-0.31z"/>
<path class="st3" d="m421.3 94.14h26.97 25.03c1.07 0 1.94 0.87 1.94 1.94v24.04 24.43"/>
<path class="st4" d="m421.3 93.95c-0.11 0-0.19 0.09-0.19 0.19 0 0.11 0.09 0.19 0.19 0.19z"/>
<path class="st2" d="m476.79 144.55v0.31h-3.1v-0.31z"/>
<path class="st0" d="m301.34 78.33v8.52"/>
<path class="st1" d="m301.53 78.33c0-0.11-0.09-0.19-0.19-0.19s-0.19 0.09-0.19 0.19z"/>
<path class="st2" d="m302.11 86.85c-0.52 1.03-0.77 2.07-0.77 3.1 0-1.03-0.26-2.07-0.77-3.1z"/>
<path class="st0" d="m739.54 242.91v2.71"/>
<path class="st1" d="m739.73 242.91c0-0.11-0.09-0.19-0.19-0.19s-0.19 0.09-0.19 0.19z"/>
<path class="st2" d="m740.31 245.62c-0.52 1.03-0.77 2.07-0.77 3.1 0-1.03-0.26-2.07-0.77-3.1z"/>
<path class="st3" d="m160.02 152.17v15.12 13.18c0 1.07-0.87 1.94-1.94 1.94h-22.7-23.09"/>
<path class="st4" d="m160.21 152.17c0-0.11-0.09-0.19-0.19-0.19-0.11 0-0.19 0.09-0.19 0.19z"/>
<path class="st2" d="m112.29 183.96h-0.31v-3.1h0.31z"/>
<path class="st0" d="m113.72 76.35h5.19 3.25c1.06 0 1.94 0.87 1.94 1.94v6.42 5.26"/>
<path class="st1" d="m113.72 76.15c-0.11 0-0.19 0.09-0.19 0.19s0.09 0.19 0.19 0.19z"/>
<path class="st2" d="m124.87 89.97c-0.52 1.03-0.77 2.07-0.77 3.1 0-1.03-0.26-2.07-0.77-3.1z"/>
<path class="st3" d="m544.94 77.36v12.01"/>
<path class="st4" d="m545.14 77.36c0-0.11-0.09-0.19-0.19-0.19s-0.19 0.09-0.19 0.19z"/>
<path class="st2" d="m546.49 89.37v0.31h-3.1v-0.31z"/>
<path class="st3" d="m143.52 96.09v49.04"/>
<path class="st4" d="m143.72 96.09c0-0.11-0.09-0.19-0.19-0.19s-0.19 0.09-0.19 0.19z"/>
<path class="st2" d="m145.07 145.13v0.31h-3.1v-0.31z"/>
<path class="st3" d="m570.36 78.33v10.07"/>
<path class="st4" d="m570.55 78.33c0-0.11-0.09-0.19-0.19-0.19s-0.19 0.09-0.19 0.19z"/>
<path class="st2" d="m571.91 88.4v0.31h-3.1v-0.31z"/>
<path class="st0" d="m298.31 149.49h-16.1-14.16c-1.07 0-1.94 0.87-1.94 1.94v12.83 11.67"/>
<path class="st1" d="m298.31 149.68c0.11 0 0.19-0.09 0.19-0.19s-0.09-0.19-0.19-0.19z"/>
<path class="st2" d="m266.9 175.92c-0.52 1.03-0.77 2.07-0.77 3.1 0-1.03-0.26-2.07-0.77-3.1z"/>
<path class="st3" d="m590.69 78.33v10.07"/>
<path class="st4" d="m590.88 78.33c0-0.11-0.09-0.19-0.19-0.19s-0.19 0.09-0.19 0.19z"/>
<path class="st2" d="m592.24 88.4v0.31h-3.1v-0.31z"/>
<path class="st3" d="m63.4 152.87v1.95 8.77 8.77c0 1.07 0.87 1.94 1.94 1.94h16.43 16.43c1.07 0 1.87 1.22 1.79 2.73s3.32 5.25 0.82 3.43"/>
<path class="st4" d="m63.59 152.83c-0.02-0.11-0.12-0.18-0.22-0.16-0.11 0.02-0.18 0.12-0.16 0.22z"/>
<path class="st2" d="m99.89 181.72-0.25-0.18 1.82-2.51 0.25 0.18z"/>
<path class="st3" d="m106.82 152.5v25.35"/>
<path class="st4" d="m107.01 152.5c0-0.11-0.09-0.19-0.19-0.19s-0.19 0.09-0.19 0.19z"/>
<path class="st2" d="m108.37 177.85v0.31h-3.1v-0.31z"/>
<path class="st0" d="m804.16 78.33v8.52"/>
<path class="st1" d="m804.35 78.33c0-0.11-0.09-0.19-0.19-0.19s-0.19 0.09-0.19 0.19z"/>
<path class="st2" d="m804.93 86.85c-0.52 1.03-0.77 2.07-0.77 3.1 0-1.03-0.26-2.07-0.77-3.1z"/>
<path class="st0" d="m312.18 150.89h2.38c1.32 0 2.38 0.87 2.38 1.94v45.04 45.04c0 1.07 0.87 1.94 1.94 1.94h33.42 33.42c1.06 0 1.94-0.87 1.94-1.94v-14.04-12.88"/>
<path class="st1" d="m312.21 150.7c-0.11-0.01-0.2 0.06-0.22 0.17-0.01 0.11 0.06 0.2 0.17 0.22z"/>
<path class="st2" d="m386.9 216c0.52-1.03 0.77-2.07 0.77-3.1 0 1.03 0.26 2.07 0.77 3.1z"/>
<path class="st0" d="m408.31 91.39v-1.94-9.24-9.24c0-1.07-0.87-1.94-1.94-1.94h-46.52-46.52c-1.07 0-1.94 0.87-1.94 1.94v37.28 36.11"/>
<path class="st1" d="m408.31 91.19c-0.11 0-0.19 0.09-0.19 0.19 0 0.11 0.09 0.19 0.19 0.19z"/>
<path class="st2" d="m312.17 144.37c-0.52 1.03-0.77 2.07-0.77 3.1 0-1.03-0.26-2.07-0.77-3.1z"/>
<path class="st0" d="m312.18 148.09h1.94 3.01 3.01c1.07 0 1.94 0.87 1.94 1.94v15.88 14.72"/>
<path class="st1" d="m312.16 147.89c-0.11 0.01-0.18 0.11-0.17 0.22s0.11 0.18 0.22 0.17z"/>
<path class="st2" d="m322.85 180.62c-0.52 1.03-0.77 2.07-0.77 3.1 0-1.03-0.26-2.07-0.77-3.1z"/>
<path class="st0" d="m299.52 151.36h-1.94-4.6-4.6c-1.07 0-1.94 0.87-1.94 1.94v11.89 10.73"/>
<path class="st1" d="m299.49 151.17c-0.11 0.02-0.17 0.12-0.15 0.23s0.12 0.17 0.23 0.15z"/>
<path class="st2" d="m287.23 175.92c-0.52 1.03-0.77 2.07-0.77 3.1 0-1.03-0.26-2.07-0.77-3.1z"/>
<path class="st0" d="m721.02 152.77v23.26"/>
<path class="st1" d="m721.21 152.77c0-0.11-0.09-0.19-0.19-0.19s-0.19 0.09-0.19 0.19z"/>
<path class="st2" d="m721.8 176.03c-0.52 1.03-0.77 2.07-0.77 3.1 0-1.03-0.26-2.07-0.77-3.1z"/>
<path class="st0" d="m610.94 183.81c-3.89 0-7.04 0.87-7.04 1.94v41.75 41.75c0 1.07-0.87 1.94-1.94 1.94h-102.84-102.84c-1.07 0-1.94-0.87-1.94-1.94v-27.2-26.04"/>
<path class="st1" d="m610.94 184c0.11 0 0.19-0.09 0.19-0.19 0-0.11-0.09-0.19-0.19-0.19z"/>
<path class="st2" d="m393.58 216c0.52-1.03 0.77-2.07 0.77-3.1 0 1.03 0.26 2.07 0.77 3.1z"/>
<path class="st0" d="m210.83 96.59v51.73"/>
<path class="st1" d="m211.02 96.59c0-0.11-0.09-0.19-0.19-0.19-0.11 0-0.19 0.09-0.19 0.19z"/>
<path class="st2" d="m211.6 148.32c-0.52 1.03-0.77 2.07-0.77 3.1 0-1.03-0.26-2.07-0.77-3.1z"/>
<path class="st0" d="m614.21 185.41v17.99"/>
<path class="st1" d="m614.41 185.41c0-0.11-0.09-0.19-0.19-0.19s-0.19 0.09-0.19 0.19z"/>
<path class="st2" d="m614.99 203.41c-0.52 1.03-0.77 2.07-0.77 3.1 0-1.03-0.26-2.07-0.77-3.1z"/>
<path class="st0" d="m651.12 148.01c0.21 0.04-0.49 0.08-1.56 0.08h-9.95-9.95c-1.07 0-1.94 0.87-1.94 1.94v15.22 15.22c0 1.07 3.29 1.94 0.19 1.94"/>
<path class="st1" d="m651.16 147.82c-0.1-0.02-0.21 0.05-0.23 0.15s0.05 0.21 0.15 0.23z"/>
<path class="st2" d="m627.91 183.18c-1.03-0.52-2.07-0.77-3.1-0.77 1.03 0 2.07-0.26 3.1-0.77z"/>
<path class="st3" d="m203.83 95.83v1.94 5.17 5.17c0 1.07-0.87 1.94-1.94 1.94h-25.79-25.79c-1.07 0-1.94 0.87-1.94 1.94v18.08 18.46"/>
<path class="st4" d="m204.02 95.83c0-0.11-0.09-0.19-0.19-0.19-0.11 0-0.19 0.09-0.19 0.19z"/>
<path class="st2" d="m149.94 148.52v0.31h-3.1v-0.31z"/>
<path class="st0" d="m658.21 152.88v23.04"/>
<path class="st1" d="m658.41 152.88c0-0.11-0.09-0.19-0.19-0.19s-0.19 0.09-0.19 0.19z"/>
<path class="st2" d="m658.99 175.92c-0.52 1.03-0.77 2.07-0.77 3.1 0-1.03-0.26-2.07-0.77-3.1z"/>
<path class="st0" d="m339.05 151.3v1.94 5.39 5.39c0 1.07 0.87 1.94 1.94 1.94h89.29 89.29c1.07 0 1.94 0.87 1.94 1.94v4.76 3.6"/>
<path class="st1" d="m339.25 151.3c0-0.11-0.09-0.19-0.19-0.19s-0.19 0.09-0.19 0.19z"/>
<path class="st2" d="m522.29 176.24c-0.52 1.03-0.77 2.07-0.77 3.1 0-1.03-0.26-2.07-0.77-3.1z"/>
<path class="st3" d="m665.31 148.01c-0.21 0.04 0.49 0.08 1.56 0.08h15.03 15.03c1.07 0 1.94 0.87 1.94 1.94v13.53 13.92"/>
<path class="st4" d="m665.35 148.2c0.1-0.02 0.17-0.12 0.15-0.23-0.02-0.1-0.12-0.17-0.23-0.15z"/>
<path class="st2" d="m700.42 177.47v0.31h-3.1v-0.31z"/>
<path class="st3" d="m651.12 150.97c0.21-0.04-0.49-0.08-1.56-0.08h-4.87-4.87c-1.07 0-1.94 0.87-1.94 1.94v12.13 12.51"/>
<path class="st4" d="m651.08 150.78c-0.1 0.02-0.17 0.12-0.15 0.23s0.12 0.17 0.23 0.15z"/>
<path class="st2" d="m639.43 177.47v0.31h-3.1v-0.31z"/>
<path class="st3" d="m665.31 150.97c-0.21-0.04 0.49-0.08 1.56-0.08h4.87 4.87c1.07 0 1.94 0.87 1.94 1.94v12.13 12.51"/>
<path class="st4" d="m665.27 151.16c0.1 0.02 0.21-0.05 0.23-0.15s-0.05-0.21-0.15-0.23z"/>
<path class="st2" d="m680.09 177.47v0.31h-3.09v-0.31z"/>
<path class="st3" d="m204.31 90.66v-10.81-8.88c0-1.07-0.87-1.94-1.94-1.94h-41.22-41.22c-1.07 0-1.94 0.87-1.94 1.94v39.31 39.7"/>
<path class="st4" d="m204.11 90.66c0 0.11 0.09 0.19 0.19 0.19 0.11 0 0.19-0.09 0.19-0.19z"/>
<path class="st2" d="m119.54 149.99v0.31h-3.1v-0.31z"/>
<path class="st3" d="m414.25 89.95v-12.78-10.84c0-1.07-0.87-1.94-1.94-1.94h-168.21-168.21c-1.07 0-1.94 0.87-1.94 1.94v43.28 43.28c0 1.07 0.87 1.94 1.94 1.94h22.99 22.99c1.07 0 1.94 2.71 1.94-0.39"/>
<path class="st4" d="m414.05 89.95c0 0.11 0.09 0.19 0.19 0.19s0.19-0.09 0.19-0.19z"/>
<path class="st2" d="m122.26 154.43v-0.31h3.1v0.31z"/>
<path class="st3" d="m728.96 151.31v15.55 13.61c0 1.07-1.33 1.94 1.77 1.94"/>
<path class="st4" d="m729.15 151.31c0-0.11-0.09-0.19-0.19-0.19s-0.19 0.09-0.19 0.19z"/>
<path class="st2" d="m730.73 180.86h0.31v3.1h-0.31z"/>
<path class="st0" d="m824.49 78.33v8.52"/>
<path class="st1" d="m824.68 78.33c0-0.11-0.09-0.19-0.19-0.19s-0.19 0.09-0.19 0.19z"/>
<path class="st2" d="m825.26 86.85c-0.52 1.03-0.77 2.07-0.77 3.1 0-1.03-0.26-2.07-0.77-3.1z"/>
<path class="st0" d="m418.7 90.66v-11.1-9.17c0-1.07 0.87-1.94 1.94-1.94h68.81 68.81c1.07 0 1.94 0.87 1.94 1.94v38.58 37.42"/>
<path class="st1" d="m418.51 90.66c0 0.11 0.09 0.19 0.19 0.19s0.19-0.09 0.19-0.19z"/>
<path class="st2" d="m560.97 146.39c-0.52 1.03-0.77 2.07-0.77 3.1 0-1.03-0.26-2.07-0.77-3.1z"/>
<path class="st0" d="m174.22 96.73v29.04 27.11c0 1.07 0.87 1.94 1.94 1.94h22.01 22.01c1.07 0 1.94 3.88 1.94 0.78"/>
<path class="st1" d="m174.42 96.73c0-0.11-0.09-0.19-0.19-0.19-0.11 0-0.19 0.09-0.19 0.19z"/>
<path class="st2" d="m221.35 155.6c0.52-1.03 0.77-2.07 0.77-3.1 0 1.03 0.26 2.07 0.77 3.1z"/>
<path class="st0" d="m214.33 95.51v26.99 25.05c0 1.07-2.32 1.94 0.77 1.94"/>
<path class="st1" d="m214.52 95.51c0-0.11-0.09-0.19-0.19-0.19-0.11 0-0.19 0.09-0.19 0.19z"/>
<path class="st2" d="m215.1 148.72c1.03 0.52 2.07 0.77 3.1 0.77-1.03 0-2.07 0.26-3.1 0.77z"/>
<path class="st3" d="m215.37 91.93h13.54 11.6c1.07 0 1.94 0.87 1.94 1.94v25.15 25.53"/>
<path class="st4" d="m215.37 91.74c-0.11 0-0.19 0.09-0.19 0.19s0.09 0.19 0.19 0.19z"/>
<path class="st2" d="m244 144.55v0.31h-3.1v-0.31z"/>
<path class="st0" d="m213.21 90.66v-10.52-8.59c0-1.07 0.87-1.94 1.94-1.94h57.98 57.98c1.07 0 1.94 0.87 1.94 1.94v36.3 36.3c0 1.06 0.28-4.25 0.14-1.16"/>
<path class="st1" d="m213.02 90.66c0 0.11 0.09 0.19 0.19 0.19 0.11 0 0.19-0.09 0.19-0.19z"/>
<path class="st2" d="m333.97 143.04c-0.56 1.01-0.87 2.03-0.91 3.06 0.05-1.03-0.16-2.07-0.63-3.13z"/>
<path class="st3" d="m215.37 94.74h9.64 7.71c1.07 0 1.94 0.87 1.94 1.94v73.12 73.12c0 1.07-0.87 1.94-1.94 1.94h-26.41-26.41c-1.07 0-1.94 2.71-1.94-0.39"/>
<path class="st4" d="m215.37 94.55c-0.11 0-0.19 0.09-0.19 0.19 0 0.11 0.09 0.19 0.19 0.19z"/>
<path class="st2" d="m176.43 244.46v-0.31h3.1v0.31z"/>
<path class="st3" d="m408.56 95.44h-7.32-5.38c-1.06 0-1.94 0.87-1.94 1.94v23.39 23.78"/>
<path class="st4" d="m408.56 95.64c0.11 0 0.19-0.09 0.19-0.19s-0.09-0.19-0.19-0.19z"/>
<path class="st2" d="m395.46 144.55v0.31h-3.1v-0.31z"/>
<path class="st0" d="m415.73 90.02v-11.94-10.01c0-1.07 0.87-1.94 1.94-1.94h171.95 171.95c1.07 0 1.94 0.87 1.94 1.94v38.05 36.89"/>
<path class="st1" d="m415.54 90.02c0 0.11 0.09 0.19 0.19 0.19s0.19-0.09 0.19-0.19z"/>
<path class="st2" d="m764.27 143c-0.52 1.03-0.77 2.07-0.77 3.1 0-1.03-0.26-2.07-0.77-3.1z"/>
<path class="st3" d="m763.5 152.88v6.53 4.6c0 1.07-0.87 1.94-1.94 1.94h-8.75-8.75c-1.07 0-1.94 0.87-1.94 1.94v4.63c0 1.49-0.05 3.52-0.11 4.55-0.06 1.02 2.42-1.89 0.68 0.68"/>
<path class="st4" d="m763.69 152.88c0-0.11-0.09-0.19-0.19-0.19s-0.19 0.09-0.19 0.19z"/>
<path class="st2" d="m743.98 178.6-0.17 0.26-2.56-1.74 0.17-0.26z"/>
<path class="st3" d="m417.21 90.25v-11.48-9.54c0-1.07 0.87-1.94 1.94-1.94h130.54 130.54c1.07 0 1.94 0.87 1.94 1.94v25.12 25.12c0 1.07 0.87 1.94 1.94 1.94h23.96 23.96c1.07 0 1.94 0.87 1.94 1.94v27.59 27.59c0 1.07 4.08 3.36 1.15 2.34"/>
<path class="st4" d="m417.02 90.25c0 0.11 0.09 0.19 0.19 0.19s0.19-0.09 0.19-0.19z"/>
<path class="st2" d="m734.61 182.33-0.29-0.1 1.02-2.92 0.29 0.1z"/>
<path class="st3" d="m580.23 152.88v24.97"/>
<path class="st4" d="m580.42 152.88c0-0.11-0.09-0.19-0.19-0.19s-0.19 0.09-0.19 0.19z"/>
<path class="st2" d="m581.78 177.85v0.31h-3.1v-0.31z"/>
<path class="st0" d="m412.76 90.02v-12.23-10.3c0-1.07-0.87-1.94-1.94-1.94h-91.71-91.71c-1.07 0-1.94 0.87-1.94 1.94v38.34 37.18"/>
<path class="st1" d="m412.57 90.02c0 0.11 0.09 0.19 0.19 0.19s0.19-0.09 0.19-0.19z"/>
<path class="st2" d="m226.24 143c-0.52 1.03-0.77 2.07-0.77 3.1 0-1.03-0.26-2.07-0.77-3.1z"/>
<path class="st0" d="m408.56 91.23h-35.57-33.63c-1.07 0-1.94 0.87-1.94 1.94v25.86 24.7"/>
<path class="st1" d="m408.56 91.43c0.11 0 0.19-0.09 0.19-0.19 0-0.11-0.09-0.19-0.19-0.19z"/>
<path class="st2" d="m338.19 143.73c-0.52 1.03-0.77 2.07-0.77 3.1 0-1.03-0.26-2.07-0.77-3.1z"/>
<path class="st0" d="m407.14 94.04h-16.78-14.84c-1.07 0-1.94 0.87-1.94 1.94v24.09 22.93"/>
<path class="st1" d="m407.14 94.23c0.11 0 0.19-0.09 0.19-0.19s-0.09-0.19-0.19-0.19z"/>
<path class="st2" d="m374.36 143c-0.52 1.03-0.77 2.07-0.77 3.1 0-1.03-0.26-2.07-0.77-3.1z"/>
<path class="st0" d="m420.64 94.94h1.94 15.2 15.2c1.07 0 1.94 0.87 1.94 1.94v23.64 23.64-1.16"/>
<path class="st1" d="m420.64 95.14c0.11 0 0.19-0.09 0.19-0.19s-0.09-0.19-0.19-0.19z"/>
<path class="st2" d="m455.68 143c-0.52 1.03-0.77 2.07-0.77 3.1 0-1.03-0.26-2.07-0.77-3.1z"/>
<path class="st3" d="m421.3 92.54h31.86 29.92c1.07 0 1.94 0.87 1.94 1.94v87.1 87.1c0 1.07-0.87 1.94-1.94 1.94h-154.92-154.92c-1.07 0-1.94-0.87-1.94-1.94v-11.91-12.3"/>
<path class="st4" d="m421.3 92.34c-0.11 0-0.19 0.09-0.19 0.19s0.09 0.19 0.19 0.19z"/>
<path class="st2" d="m169.75 244.46v-0.31h3.1v0.31z"/>
<path class="st3" d="m411.28 90.25v-11.77-9.83c0-1.07-0.87-1.94-1.94-1.94h-79.14-79.14c-1.07 0-1.94 0.87-1.94 1.94v37.76 38.14"/>
<path class="st4" d="m411.08 90.25c0 0.11 0.09 0.19 0.19 0.19s0.19-0.09 0.19-0.19z"/>
<path class="st2" d="m250.68 144.55v0.31h-3.1v-0.31z"/>
<path class="st3" d="m376.92 152.88c0 3.12 0.87 5.65 1.94 5.65h96.38 96.38c1.07 0 1.94 0.87 1.94 1.94v8.5 8.89"/>
<path class="st4" d="m377.12 152.88c0-0.11-0.09-0.19-0.19-0.19s-0.19 0.09-0.19 0.19z"/>
<path class="st2" d="m575.1 177.85v0.31h-3.1v-0.31z"/>
<path class="st3" d="m595 152.71v14.14 12.21c0 1.07-0.87 1.94-1.94 1.94h-3.81-3.81c-1.07 0 2.67-0.58-0.4-0.19"/>
<path class="st4" d="m595.19 152.71c0-0.11-0.09-0.19-0.19-0.19s-0.19 0.09-0.19 0.19z"/>
<path class="st2" d="m585.23 182.35-0.31 0.04-0.38-3.07 0.31-0.04z"/>
<path class="st3" d="m89.63 212.9v13.31 11.38c0 1.07-0.97 1.94 2.13 1.94"/>
<path class="st4" d="m89.83 212.9c0-0.11-0.09-0.19-0.19-0.19s-0.19 0.09-0.19 0.19z"/>
<path class="st2" d="m91.76 237.98h0.31v3.1h-0.31z"/>
<path class="st3" d="m228.8 152.5v10.9 8.96c0 1.07-0.87 1.94-1.94 1.94h-23.24-23.24c-1.07 0-1.94 0.58-1.94 3.68"/>
<path class="st4" d="m228.99 152.5c0-0.11-0.09-0.19-0.19-0.19-0.11 0-0.19 0.09-0.19 0.19z"/>
<path class="st2" d="m180.01 177.98v0.31h-3.1v-0.31z"/>
<path class="st3" d="m88.78 211.39h1.94 40.99 40.99c1.07 0 1.94 0.87 1.94 1.94v10.44 10.83"/>
<path class="st4" d="m88.74 211.57c0.1 0.03 0.21-0.04 0.23-0.14 0.03-0.1-0.04-0.21-0.14-0.23z"/>
<path class="st2" d="m176.18 234.59v0.31h-3.1v-0.31z"/>
<path class="st0" d="m81.69 212.9v20.14"/>
<path class="st1" d="m81.89 212.9c0-0.11-0.09-0.19-0.19-0.19-0.11 0-0.19 0.09-0.19 0.19z"/>
<path class="st2" d="m82.47 233.04c-0.52 1.03-0.77 2.07-0.77 3.1 0-1.03-0.26-2.07-0.77-3.1z"/>
<path class="st0" d="m59.33 152.46v27.82 25.89c0 1.07 0.87 1.94 1.94 1.94h8.91 7.75"/>
<path class="st1" d="m59.52 152.46c0-0.11-0.09-0.19-0.19-0.19s-0.19 0.09-0.19 0.19z"/>
<path class="st2" d="m77.92 207.34c1.03 0.52 2.07 0.77 3.1 0.77-1.03 0-2.07 0.26-3.1 0.77z"/>
<path class="st0" d="m78.01 210.92h-1.94-9.44-9.44c-1.07 0-1.94 0.87-1.94 1.94v11.18 11.18c0 1.07 5.26 4.62 2.5 3.21"/>
<path class="st1" d="m78.1 211.09c0.1-0.05 0.13-0.16 0.09-0.26-0.05-0.1-0.16-0.13-0.26-0.09z"/>
<path class="st2" d="m57.41 239.12c-0.69-0.93-1.49-1.63-2.41-2.1 0.92 0.47 1.96 0.71 3.11 0.72z"/>
<path class="st3" d="m86.78 209.51h51.32 49.38c1.07 0 1.94 0.87 1.94 1.94v11.38 11.76"/>
<path class="st4" d="m86.78 209.32c-0.11 0-0.19 0.09-0.19 0.19 0 0.11 0.09 0.19 0.19 0.19z"/>
<path class="st2" d="m190.96 234.59v0.31h-3.1v-0.31z"/>
<path class="st0" d="m59.91 242.91v2.71"/>
<path class="st1" d="m60.11 242.91c0-0.11-0.09-0.19-0.19-0.19-0.11 0-0.19 0.09-0.19 0.19z"/>
<path class="st2" d="m60.69 245.62c-0.52 1.03-0.77 2.07-0.77 3.1 0-1.03-0.26-2.07-0.77-3.1z"/>
<path class="st3" d="m321.67 78.33v10.07"/>
<path class="st4" d="m321.86 78.33c0-0.11-0.09-0.19-0.19-0.19s-0.19 0.09-0.19 0.19z"/>
<path class="st2" d="m323.22 88.4v0.31h-3.1v-0.31z"/>
<path class="st5" d="m359.79 238.12v2.81l4.25 1.98h6.02l4.25-1.98v-2.81l-4.25-1.98h-6.02z"/>
<text class="st2 st6 st7" x="357.91159" y="240.98901">HNRNPA1</text>
<path class="st5" d="m698.88 73.54v2.81l4.25 1.98h6.02l4.25-1.98v-2.81l-4.25-1.98h-6.02z"/>
<text class="st2 st6 st7" x="700.06982" y="76.40741">PLCG1</text>
<path class="st5" d="m767.13 209.51c0 1.87-3.25 3.39-7.26 3.39s-7.26-1.52-7.26-3.39 3.25-3.39 7.26-3.39c4.01 0.01 7.26 1.52 7.26 3.39z"/>
<text class="st2 st6 st7" x="755.27692" y="210.97729">PLK1</text>
<path class="st8" d="m630.62 208.11v2.81l4.25 1.98h6.02l4.25-1.98v-2.81l-4.25-1.98h-6.02z"/>
<text class="st2 st6 st7" x="631.32672" y="210.97729">ADCY3</text>
<path class="st5" d="m783.83 89.95 7.26 6.78h-14.52z"/>
<text class="st2 st6 st7" x="776.70563" y="94.802002">TRIM25</text>
<path class="st5" d="m479.59 182.41c0 1.87-3.25 3.39-7.26 3.39s-7.26-1.52-7.26-3.39 3.25-3.39 7.26-3.39 7.26 1.51 7.26 3.39z"/>
<text class="st2 st6 st7" x="468.6069" y="183.86938">NLK</text>
<path class="st5" d="m449.58 238.12v2.81l4.25 1.98h6.02l4.25-1.98v-2.81l-4.25-1.98h-6.02z"/>
<text class="st2 st6 st7" x="449.5679" y="240.98901">S100A9</text>
<path class="st5" d="m791.09 74.94c0 1.87-3.25 3.39-7.26 3.39s-7.26-1.52-7.26-3.39 3.25-3.39 7.26-3.39c4.01 0.01 7.26 1.52 7.26 3.39z"/>
<text class="st2 st6 st7" x="774.81787" y="76.40741">MAP3K13</text>
<path class="st5" d="m624.81 149.49c0 1.87-3.25 3.39-7.26 3.39s-7.26-1.52-7.26-3.39 3.25-3.39 7.26-3.39 7.26 1.52 7.26 3.39z"/>
<text class="st2 st6 st7" x="609.60687" y="150.95331">CAMK2B</text>
<path class="st5" d="m502.83 149.49c0 1.87-3.25 3.39-7.26 3.39s-7.26-1.52-7.26-3.39 3.25-3.39 7.26-3.39 7.26 1.52 7.26 3.39z"/>
<text class="st2 st6 st7" x="487.18311" y="150.95331">RPS6KA5</text>
<path class="st8" d="m184.8 146.1 7.26 6.78h-14.52z"/>
<text class="st2 st6 st7" x="179.81641" y="150.95331">SOX9</text>
<path class="st5" d="m418.6 182.41c0 1.87-3.25 3.39-7.26 3.39s-7.26-1.52-7.26-3.39 3.25-3.39 7.26-3.39 7.26 1.51 7.26 3.39z"/>
<text class="st2 st6 st7" x="405.89789" y="183.86938">IGF1R</text>
<path class="st5" d="m438.93 182.41c0 1.87-3.25 3.39-7.26 3.39s-7.26-1.52-7.26-3.39 3.25-3.39 7.26-3.39 7.26 1.51 7.26 3.39z"/>
<text class="st2 st6 st7" x="425.10989" y="183.86938">MAPK8</text>
<path class="st5" d="m811.42 149.49c0 1.87-3.25 3.39-7.26 3.39s-7.26-1.52-7.26-3.39 3.25-3.39 7.26-3.39 7.26 1.52 7.26 3.39z"/>
<text class="st2 st6 st7" x="797.65582" y="150.95331">CDK12</text>
<path class="st8" d="m523.16 149.49c0 1.87-3.25 3.39-7.26 3.39s-7.26-1.52-7.26-3.39 3.25-3.39 7.26-3.39 7.26 1.52 7.26 3.39z"/>
<text class="st2 st6 st7" x="507.51321" y="150.95331">RPS6KA3</text>
<path class="st5" d="m345.99 148.09v2.81l4.25 1.98h6.02l4.25-1.98v-2.81l-4.25-1.98h-6.02z"/>
<text class="st2 st6 st7" x="348.42331" y="150.95331">TSC2</text>
<path class="st5" d="m754.06 93.34c0 1.87-3.25 3.39-7.26 3.39s-7.26-1.52-7.26-3.39 3.25-3.39 7.26-3.39 7.26 1.52 7.26 3.39z"/>
<text class="st2 st6 st7" x="743.19092" y="94.802002">SRC</text>
<path class="st8" d="m181.17 90.8v5.08c0 0.47 0.38 0.85 0.85 0.85h12.83c0.47 0 0.85-0.38 0.85-0.85v-5.08c0-0.47-0.38-0.85-0.85-0.85h-12.83c-0.47 0-0.85 0.38-0.85 0.85z"/>
<text class="st2 st6 st7" x="181.33009" y="94.802002">NANOG</text>
<path class="st5" d="m528.97 148.09v2.81l4.25 1.98h6.02l4.25-1.98v-2.81l-4.25-1.98h-6.02z"/>
<text class="st2 st6 st7" x="531.19678" y="150.95331">NCF1</text>
<path class="st5" d="m205.13 206.13 7.26 6.78h-14.52z"/>
<text class="st2 st6 st7" x="201.7935" y="210.97729">SP1</text>
<path class="st5" d="m194.97 179.02 7.26 6.78h-14.53z"/>
<text class="st2 st6 st7" x="190.3232" y="183.86938">RELA</text>
<path class="st5" d="m698.88 91.93v2.81l4.25 1.98h6.02l4.25-1.98v-2.81l-4.25-1.98h-6.02z"/>
<text class="st2 st6 st7" x="668.80621" y="94.802002">X1_2_DIACYL_SN_GLYCEROL</text>
<path class="st8" d="m743.17 146.1 7.26 6.78h-14.52z"/>
<text class="st2 st6 st7" x="736.71527" y="150.95331">HNF4A</text>
<path class="st5" d="m800.53 236.14 7.26 6.78h-14.52z"/>
<text class="st2 st6 st7" x="795.13623" y="240.98901">NPM1</text>
<path class="st5" d="m452 206.13 7.26 6.78h-14.52z"/>
<text class="st2 st6 st7" x="445.95071" y="210.97729">STAT3</text>
<path class="st5" d="m767.13 239.53c0 1.87-3.25 3.39-7.26 3.39s-7.26-1.52-7.26-3.39 3.25-3.39 7.26-3.39 7.26 1.51 7.26 3.39z"/>
<text class="st2 st6 st7" x="752.08063" y="240.98901">MAP2K2</text>
<path class="st5" d="m733.73 93.34c0 1.87-3.25 3.39-7.26 3.39s-7.26-1.52-7.26-3.39 3.25-3.39 7.26-3.39 7.26 1.52 7.26 3.39z"/>
<text class="st2 st6 st7" x="722.79828" y="94.802002">LYN</text>
<path class="st5" d="m398.27 182.41c0 1.87-3.25 3.39-7.26 3.39s-7.26-1.52-7.26-3.39 3.25-3.39 7.26-3.39 7.26 1.51 7.26 3.39z"/>
<text class="st2 st6 st7" x="386.30029" y="183.86938">EGFR</text>
<path class="st5" d="m370.68 206.13 7.26 6.78h-14.52z"/>
<text class="st2 st6 st7" x="366.46631" y="210.97729">MYC</text>
<path class="st8" d="m776.57 148.09v2.81l4.25 1.98h6.02l4.25-1.98v-2.81l-4.25-1.98h-6.02z"/>
<text class="st2 st6 st7" x="778.51611" y="150.95331">MAVS</text>
<path class="st8" d="m436.51 261.31 7.26 6.78h-14.52z"/>
<text class="st2 st6 st7" x="430.07959" y="266.1604">RUNX3</text>
<path class="st5" d="m802.46 209.51c0 1.87-3.25 3.39-7.26 3.39s-7.26-1.52-7.26-3.39 3.25-3.39 7.26-3.39c4.01 0.01 7.26 1.52 7.26 3.39z"/>
<text class="st2 st6 st7" x="789.92529" y="210.97729">CDK2</text>
<path class="st5" d="m83.15 179.02 7.26 6.78h-14.52z"/>
<text class="st2 st6 st7" x="77.076202" y="183.86938">NFKB1</text>
<path class="st5" d="m411.34 206.13 7.26 6.78h-14.52z"/>
<text class="st2 st6 st7" x="406.80029" y="210.97729">ESR1</text>
<path class="st8" d="m529.7 89.95 7.26 6.78h-14.52z"/>
<text class="st2 st6 st7" x="526.13232" y="94.802002">RB1</text>
<path class="st5" d="m192.06 74.94c0 1.87-3.25 3.39-7.26 3.39s-7.26-1.52-7.26-3.39 3.25-3.39 7.26-3.39c4.01 0.01 7.26 1.52 7.26 3.39z"/>
<text class="st2 st6 st7" x="180.08791" y="76.40741">BRAF</text>
<path class="st5" d="m733.73 74.94c0 1.87-3.25 3.39-7.26 3.39s-7.26-1.52-7.26-3.39 3.25-3.39 7.26-3.39c4.01 0.01 7.26 1.52 7.26 3.39z"/>
<text class="st2 st6 st7" x="717.54248" y="76.40741">CSNK1G1</text>
<path class="st5" d="m306.78 179.02 7.26 6.78h-14.52z"/>
<text class="st2 st6 st7" x="302.84329" y="183.86938">VDR</text>
<path class="st5" d="m414.25 146.1 7.26 6.78h-14.52z"/>
<text class="st2 st6 st7" x="409.70459" y="150.95331">ETS1</text>
<path class="st5" d="m62.82 89.95 7.26 6.78h-14.52z"/>
<text class="st2 st6 st7" x="58.390598" y="94.802002">TFEB</text>
<path class="st5" d="m443.77 252.11c0 1.87-3.25 3.39-7.26 3.39s-7.26-1.52-7.26-3.39 3.25-3.39 7.26-3.39 7.26 1.52 7.26 3.39z"/>
<text class="st2 st6 st7" x="421.9097" y="253.57501">CYCLIND_CDK4</text>
<path class="st8" d="m800.53 248.72 7.26 6.78h-14.52z"/>
<text class="st2 st6 st7" x="793.82959" y="253.57501">HOXA9</text>
<path class="st5" d="m434.58 146.1 7.26 6.78h-14.52z"/>
<text class="st2 st6 st7" x="430.00629" y="150.95331">ELK1</text>
<path class="st5" d="m114.37 93.34c0 1.87-3.25 3.39-7.26 3.39s-7.26-1.52-7.26-3.39 3.25-3.39 7.26-3.39 7.26 1.52 7.26 3.39z"/>
<text class="st2 st6 st7" x="101.1279" y="94.802002">STK11</text>
<path class="st5" d="m429.25 238.12v2.81l4.25 1.98h6.02l4.25-1.98v-2.81l-4.25-1.98h-6.02z"/>
<text class="st2 st6 st7" x="429.728" y="240.98901">CCND1</text>
<path class="st8" d="m75.89 148.09v2.81l4.25 1.98h6.02l4.25-1.98v-2.81l-4.25-1.98h-6.02z"/>
<text class="st2 st6 st7" x="75.947304" y="150.95331">SLC9A1</text>
<path class="st5" d="m340.18 206.13h14.52v6.78h-14.52z"/>
<text class="st2 st6 st7" x="332.69189" y="210.97729">PROLIFERATION</text>
<path class="st5" d="m94.04 93.34c0 1.87-3.25 3.39-7.26 3.39s-7.26-1.52-7.26-3.39 3.25-3.39 7.26-3.39 7.26 1.52 7.26 3.39z"/>
<text class="st2 st6 st7" x="80.428703" y="94.802002">PRKCD</text>
<path class="st5" d="m459.26 182.41c0 1.87-3.25 3.39-7.26 3.39s-7.26-1.52-7.26-3.39 3.25-3.39 7.26-3.39 7.26 1.51 7.26 3.39z"/>
<text class="st2 st6 st7" x="446.396" y="183.86938">IRAK1</text>
<path class="st8" d="m475.24 146.1 7.26 6.78h-14.52z"/>
<text class="st2 st6 st7" x="467.83539" y="150.95331">POU5F1</text>
<path class="st5" d="m308.6 93.34c0 1.87-3.25 3.39-7.26 3.39s-7.26-1.52-7.26-3.39 3.25-3.39 7.26-3.39 7.26 1.52 7.26 3.39z"/>
<text class="st2 st6 st7" x="296.8154" y="94.802002">YES1</text>
<path class="st5" d="m70.08 74.94c0 1.87-3.25 3.39-7.26 3.39s-7.26-1.52-7.26-3.39 3.25-3.39 7.26-3.39 7.26 1.52 7.26 3.39z"/>
<text class="st2 st6 st7" x="56.804199" y="76.40741">PRKCB</text>
<path class="st5" d="m354.71 182.41c0 1.87-3.25 3.39-7.26 3.39s-7.26-1.52-7.26-3.39 3.25-3.39 7.26-3.39 7.26 1.51 7.26 3.39z"/>
<text class="st2 st6 st7" x="343.771" y="183.86938">FYN</text>
<path class="st5" d="m787.46 239.53c0 1.87-3.25 3.39-7.26 3.39s-7.26-1.52-7.26-3.39 3.25-3.39 7.26-3.39 7.26 1.51 7.26 3.39z"/>
<text class="st2 st6 st7" x="773.89398" y="240.98901">MASTL</text>
<path class="st5" d="m746.8 252.11c0 1.87-3.25 3.39-7.26 3.39s-7.26-1.52-7.26-3.39 3.25-3.39 7.26-3.39 7.26 1.52 7.26 3.39z"/>
<text class="st2 st6 st7" x="734.67432" y="253.57501">ULK1</text>
<path class="st5" d="m171.73 149.49c0 1.87-3.25 3.39-7.26 3.39s-7.26-1.52-7.26-3.39 3.25-3.39 7.26-3.39 7.26 1.52 7.26 3.39z"/>
<text class="st2 st6 st7" x="158.2354" y="150.95331">PRKCA</text>
<path class="st5" d="m308.6 74.94c0 1.87-3.25 3.39-7.26 3.39s-7.26-1.52-7.26-3.39 3.25-3.39 7.26-3.39c4.01 0.01 7.26 1.52 7.26 3.39z"/>
<text class="st2 st6 st7" x="295.23541" y="76.40741">EPHA2</text>
<path class="st5" d="m127.44 89.95 7.26 6.78h-14.52z"/>
<text class="st2 st6 st7" x="120.4395" y="94.802002">NFE2L2</text>
<path class="st8" d="m557.29 93.34c0 1.87-3.25 3.39-7.26 3.39s-7.26-1.52-7.26-3.39 3.25-3.39 7.26-3.39 7.26 1.52 7.26 3.39z"/>
<text class="st2 st6 st7" x="543.34521" y="94.802002">PIK3C3</text>
<path class="st5" d="m155.03 93.34c0 1.87-3.25 3.39-7.26 3.39s-7.26-1.52-7.26-3.39 3.25-3.39 7.26-3.39 7.26 1.52 7.26 3.39z"/>
<text class="st2 st6 st7" x="140.1992" y="94.802002">PRKACA</text>
<path class="st5" d="m746.8 239.53c0 1.87-3.25 3.39-7.26 3.39s-7.26-1.52-7.26-3.39 3.25-3.39 7.26-3.39 7.26 1.51 7.26 3.39z"/>
<text class="st2 st6 st7" x="733.23578" y="240.98901">CHEK2</text>
<path class="st8" d="m577.62 93.34c0 1.87-3.25 3.39-7.26 3.39s-7.26-1.52-7.26-3.39 3.25-3.39 7.26-3.39 7.26 1.52 7.26 3.39z"/>
<text class="st2 st6 st7" x="564.40869" y="94.802002">PRKCE</text>
<path class="st5" d="m266.12 179.02 7.26 6.78h-14.52z"/>
<text class="st2 st6 st7" x="258.89401" y="183.86938">TFAP2A</text>
<path class="st5" d="m809 182.41c0 1.87-3.25 3.39-7.26 3.39s-7.26-1.52-7.26-3.39 3.25-3.39 7.26-3.39 7.26 1.51 7.26 3.39z"/>
<text class="st2 st6 st7" x="797.14789" y="183.86938">PLK2</text>
<path class="st5" d="m547.12 74.94c0 1.87-3.25 3.39-7.26 3.39s-7.26-1.52-7.26-3.39 3.25-3.39 7.26-3.39 7.26 1.52 7.26 3.39z"/>
<text class="st2 st6 st7" x="534.58148" y="76.40741">CDK5</text>
<path class="st8" d="m590.69 89.95 7.26 6.78h-14.52z"/>
<text class="st2 st6 st7" x="585.46039" y="94.802002">CDX2</text>
<path class="st8" d="m110.74 182.41c0 1.87-3.25 3.39-7.26 3.39s-7.26-1.52-7.26-3.39 3.25-3.39 7.26-3.39 7.26 1.51 7.26 3.39z"/>
<text class="st2 st6 st7" x="98.428703" y="183.86938">AKT1</text>
<path class="st5" d="m811.42 74.94c0 1.87-3.25 3.39-7.26 3.39s-7.26-1.52-7.26-3.39 3.25-3.39 7.26-3.39 7.26 1.52 7.26 3.39z"/>
<text class="st2 st6 st7" x="798.70258" y="76.40741">PRKCI</text>
<path class="st5" d="m312.83 149.49c0 1.87-3.25 3.39-7.26 3.39s-7.26-1.52-7.26-3.39 3.25-3.39 7.26-3.39 7.26 1.52 7.26 3.39z"/>
<text class="st2 st6 st7" x="296.7124" y="150.95331">CSNK2A1</text>
<path class="st5" d="m726.47 182.41c0 1.87-3.25 3.39-7.26 3.39s-7.26-1.52-7.26-3.39 3.25-3.39 7.26-3.39 7.26 1.51 7.26 3.39z"/>
<text class="st2 st6 st7" x="713.65973" y="183.86938">PINK1</text>
<path class="st5" d="m391.01 206.13 7.26 6.78h-14.52z"/>
<text class="st2 st6 st7" x="384.9595" y="210.97729">STAT1</text>
<path class="st5" d="m577.62 74.94c0 1.87-3.25 3.39-7.26 3.39s-7.26-1.52-7.26-3.39 3.25-3.39 7.26-3.39 7.26 1.52 7.26 3.39z"/>
<text class="st2 st6 st7" x="564.27692" y="76.40741">PDPK1</text>
<path class="st5" d="m110.74 149.49c0 1.87-3.25 3.39-7.26 3.39s-7.26-1.52-7.26-3.39 3.25-3.39 7.26-3.39 7.26 1.52 7.26 3.39z"/>
<text class="st2 st6 st7" x="95.381798" y="150.95331">CAMKK2</text>
<path class="st5" d="m205.13 146.1 7.26 6.78h-14.52z"/>
<text class="st2 st6 st7" x="198.6978" y="150.95331">RUNX2</text>
<path class="st5" d="m624.81 209.51c0 1.87-3.25 3.39-7.26 3.39s-7.26-1.52-7.26-3.39 3.25-3.39 7.26-3.39c4.01 0.01 7.26 1.52 7.26 3.39z"/>
<text class="st2 st6 st7" x="609.76611" y="210.97729">MAP3K7</text>
<path class="st5" d="m590.69 71.56 7.26 6.78h-14.52z"/>
<text class="st2 st6 st7" x="583.5874" y="76.40741">NANOG</text>
<path class="st5" d="m624.81 182.41c0 1.87-3.25 3.39-7.26 3.39s-7.26-1.52-7.26-3.39 3.25-3.39 7.26-3.39 7.26 1.51 7.26 3.39z"/>
<text class="st2 st6 st7" x="609.32178" y="183.86938">CAMK2G</text>
<path class="st8" d="m144.14 146.1 7.26 6.78h-14.52z"/>
<text class="st2 st6 st7" x="136.5459" y="150.95331">NFATC1</text>
<path class="st5" d="m665.47 182.41c0 1.87-3.25 3.39-7.26 3.39s-7.26-1.52-7.26-3.39 3.25-3.39 7.26-3.39 7.26 1.51 7.26 3.39z"/>
<text class="st2 st6 st7" x="649.93213" y="183.86938">CAMK2D</text>
<path class="st5" d="m531.87 182.41c0 1.87-3.25 3.39-7.26 3.39s-7.26-1.52-7.26-3.39 3.25-3.39 7.26-3.39 7.26 1.51 7.26 3.39z"/>
<text class="st2 st6 st7" x="518.31201" y="183.86938">CHEK1</text>
<path class="st5" d="m650.95 148.09v2.81l4.25 1.98h6.02l4.25-1.98v-2.81l-4.25-1.98h-6.02z"/>
<text class="st2 st6 st7" x="645.47021" y="150.95331">CALCIUM_2__</text>
<path class="st8" d="m123.81 146.1 7.26 6.78h-14.52z"/>
<text class="st2 st6 st7" x="119.0649" y="150.95331">TP53</text>
<path class="st8" d="m671.28 181v2.81l4.25 1.98h6.02l4.25-1.98v-2.81l-4.25-1.98h-6.02z"/>
<text class="st2 st6 st7" x="671.94482" y="183.86938">CALM3</text>
<path class="st5" d="m730.1 149.49c0 1.87-3.25 3.39-7.26 3.39s-7.26-1.52-7.26-3.39 3.25-3.39 7.26-3.39 7.26 1.52 7.26 3.39z"/>
<text class="st2 st6 st7" x="716.12061" y="150.95331">MARK2</text>
<path class="st5" d="m817.23 73.54v2.81l4.25 1.98h6.02l4.25-1.98v-2.81l-4.25-1.98h-6.02z"/>
<text class="st2 st6 st7" x="819.41357" y="76.40741">BMP7</text>
<path class="st5" d="m556.56 146.1 7.26 6.78h-14.52z"/>
<text class="st2 st6 st7" x="549.86871" y="150.95331">SREBF2</text>
<path class="st8" d="m691.61 181v2.81l4.25 1.98h6.02l4.25-1.98v-2.81l-4.25-1.98h-6.02z"/>
<text class="st2 st6 st7" x="692.2749" y="183.86938">CALM2</text>
<path class="st5" d="m168.1 89.95 7.26 6.78h-14.52z"/>
<text class="st2 st6 st7" x="163.5591" y="94.802002">ESR2</text>
<path class="st5" d="m216.02 93.34c0 1.87-3.25 3.39-7.26 3.39s-7.26-1.52-7.26-3.39 3.25-3.39 7.26-3.39 7.26 1.52 7.26 3.39z"/>
<text class="st2 st6 st7" x="202.1987" y="94.802002">MAPK3</text>
<path class="st8" d="m393.92 146.1 7.26 6.78h-14.52z"/>
<text class="st2 st6 st7" x="387.70749" y="150.95331">SOX10</text>
<path class="st8" d="m630.62 181v2.81l4.25 1.98h6.02l4.25-1.98v-2.81l-4.25-1.98h-6.02z"/>
<text class="st2 st6 st7" x="631.28271" y="183.86938">CALM1</text>
<path class="st5" d="m770.76 149.49c0 1.87-3.25 3.39-7.26 3.39s-7.26-1.52-7.26-3.39 3.25-3.39 7.26-3.39 7.26 1.52 7.26 3.39z"/>
<text class="st2 st6 st7" x="755.8042" y="150.95331">EIF2AK2</text>
<path class="st5" d="m114.37 74.94c0 1.87-3.25 3.39-7.26 3.39s-7.26-1.52-7.26-3.39 3.25-3.39 7.26-3.39 7.26 1.52 7.26 3.39z"/>
<text class="st2 st6 st7" x="101.0391" y="76.40741">PRKCZ</text>
<path class="st8" d="m732.28 181v2.81l4.25 1.98h6.02l4.25-1.98v-2.81l-4.25-1.98h-6.02z"/>
<text class="st2 st6 st7" x="733.3999" y="183.86938">EIF2S1</text>
<path class="st5" d="m831.75 93.34c0 1.87-3.25 3.39-7.26 3.39s-7.26-1.52-7.26-3.39 3.25-3.39 7.26-3.39 7.26 1.52 7.26 3.39z"/>
<text class="st2 st6 st7" x="818.18903" y="94.802002">BMPR2</text>
<path class="st5" d="m569.63 146.1h9.68l4.84 6.78h-9.68z"/>
<text class="st2 st6 st7" x="570.76221" y="150.95331">DUSP7</text>
<path class="st5" d="m421.51 93.34c0 1.87-3.25 3.39-7.26 3.39s-7.26-1.52-7.26-3.39 3.25-3.39 7.26-3.39 7.26 1.52 7.26 3.39z"/>
<text class="st2 st6 st7" x="407.68311" y="94.802002">MAPK1</text>
<path class="st5" d="m286.45 179.02 7.26 6.78h-14.52z"/>
<text class="st2 st6 st7" x="280.80911" y="183.86938">MYCN</text>
<path class="st8" d="m238.53 146.95v5.08c0 0.47 0.38 0.85 0.85 0.85h12.83c0.47 0 0.85-0.38 0.85-0.85v-5.08c0-0.47-0.38-0.85-0.85-0.85h-12.83c-0.47 0-0.85 0.38-0.85 0.85z"/>
<text class="st2 st6 st7" x="240.9673" y="150.95331">JUND</text>
<path class="st5" d="m366.32 146.1h9.68l4.84 6.78h-9.68z"/>
<text class="st2 st6 st7" x="366.23099" y="150.95331">DUSP16</text>
<path class="st5" d="m604.48 149.49c0 1.87-3.25 3.39-7.26 3.39s-7.26-1.52-7.26-3.39 3.25-3.39 7.26-3.39 7.26 1.52 7.26 3.39z"/>
<text class="st2 st6 st7" x="592.10992" y="150.95331">GRK2</text>
<path class="st5" d="m327.11 179.02 7.26 6.78h-14.52z"/>
<text class="st2 st6 st7" x="321.53561" y="183.86938">HIF1A</text>
<path class="st8" d="m107.83 239.53c0 1.87-3.25 3.39-7.26 3.39s-7.26-1.52-7.26-3.39 3.25-3.39 7.26-3.39 7.26 1.51 7.26 3.39z"/>
<text class="st2 st6 st7" x="92.786598" y="240.98901">MAP3K8</text>
<path class="st5" d="m232.72 149.49c0 1.87-3.25 3.39-7.26 3.39s-7.26-1.52-7.26-3.39 3.25-3.39 7.26-3.39 7.26 1.52 7.26 3.39z"/>
<text class="st2 st6 st7" x="217.4165" y="150.95331">CDKN1A</text>
<path class="st5" d="m83.15 206.13 7.26 6.78h-14.52z"/>
<text class="st2 st6 st7" x="69.326202" y="210.97729">NFKB_P65_P50</text>
<path class="st8" d="m181.9 182.41c0 1.87-3.25 3.39-7.26 3.39s-7.26-1.52-7.26-3.39 3.25-3.39 7.26-3.39 7.26 1.51 7.26 3.39z"/>
<text class="st2 st6 st7" x="160.36819" y="183.86938">CYCLINB_CDK1</text>
<path class="st8" d="m167.37 236.98v5.08c0 0.47 0.38 0.85 0.85 0.85h12.83c0.47 0 0.85-0.38 0.85-0.85v-5.08c0-0.47-0.38-0.85-0.85-0.85h-12.83c-0.47 0.01-0.85 0.39-0.85 0.85z"/>
<text class="st2 st6 st7" x="171.2603" y="240.98901">JUN</text>
<path class="st5" d="m767.13 182.41c0 1.87-3.25 3.39-7.26 3.39s-7.26-1.52-7.26-3.39 3.25-3.39 7.26-3.39 7.26 1.51 7.26 3.39z"/>
<text class="st2 st6 st7" x="754.88818" y="183.86938">VRK2</text>
<path class="st5" d="m67.17 252.11c0 1.87-3.25 3.39-7.26 3.39s-7.26-1.52-7.26-3.39 3.25-3.39 7.26-3.39 7.26 1.52 7.26 3.39z"/>
<text class="st2 st6 st7" x="54.570801" y="253.57501">RIPK2</text>
<path class="st5" d="m454.91 146.1 7.26 6.78h-14.52z"/>
<text class="st2 st6 st7" x="448.9985" y="150.95331">CEBPA</text>
<path class="st5" d="m52.65 238.12v2.81l4.25 1.98h6.02l4.25-1.98v-2.81l-4.25-1.98h-6.02z"/>
<text class="st2 st6 st7" x="56.2188" y="240.98901">TNF</text>
<path class="st8" d="m208.04 238.12v2.81l4.25 1.98h6.02l4.25-1.98v-2.81l-4.25-1.98h-6.02z"/>
<text class="st2 st6 st7" x="209.2964" y="240.98901">TGFB1</text>
<path class="st8" d="m584.15 182.41c0 1.87-3.25 3.39-7.26 3.39s-7.26-1.52-7.26-3.39 3.25-3.39 7.26-3.39 7.26 1.51 7.26 3.39z"/>
<text class="st2 st6 st7" x="569.10498" y="183.86938">MAPK14</text>
<path class="st5" d="m70.08 149.49c0 1.87-3.25 3.39-7.26 3.39s-7.26-1.52-7.26-3.39 3.25-3.39 7.26-3.39 7.26 1.52 7.26 3.39z"/>
<text class="st2 st6 st7" x="57.9897" y="150.95331">TBK1</text>
<path class="st8" d="m328.93 93.34c0 1.87-3.25 3.39-7.26 3.39s-7.26-1.52-7.26-3.39 3.25-3.39 7.26-3.39 7.26 1.52 7.26 3.39z"/>
<text class="st2 st6 st7" x="314.3208" y="94.802002">PRKACB</text>
<path class="st5" d="m72.98 236.14h14.52v6.78h-14.52z"/>
<text class="st2 st6 st7" x="69.889603" y="240.98901">APOPTOSIS</text>
<path class="st5" d="m340.18 149.49c0 1.87-3.25 3.39-7.26 3.39s-7.26-1.52-7.26-3.39 3.25-3.39 7.26-3.39 7.26 1.52 7.26 3.39z"/>
<text class="st2 st6 st7" x="324.5376" y="150.95331">RPS6KA1</text>
<path class="st8" d="m187.7 236.14h14.52v6.78h-14.52z"/>
<text class="st2 st6 st7" x="184.61279" y="240.98901">APOPTOSIS</text>
<path class="st5" d="m811.42 93.34c0 1.87-3.25 3.39-7.26 3.39s-7.26-1.52-7.26-3.39 3.25-3.39 7.26-3.39 7.26 1.52 7.26 3.39z"/>
<text class="st2 st6 st7" x="798.88037" y="94.802002">CDK7</text>
<path class="st5" d="m314.41 73.54v2.81l4.25 1.98h6.02l4.25-1.98v-2.81l-4.25-1.98h-6.02z"/>
<text class="st2 st6 st7" x="312.98969" y="76.40741">PRKAR1A</text>



</svg>
